<?xml version="1.0" encoding="UTF-8" standalone="no"?>
<svg
   version="1.1"
   viewBox="0.00 0.00 1024.00 1024.00"
   id="svg402"
   sodipodi:docname="_37774c5c-0f4b-4303-b064-85dc903c17e9.svg"
   inkscape:version="1.2.2 (b0a8486541, 2022-12-01)"
   inkscape:export-filename="_37774c5c-0f4b-4303-b064-85dc903c17e9.png"
   inkscape:export-xdpi="201.66"
   inkscape:export-ydpi="201.66"
   xmlns:inkscape="http://www.inkscape.org/namespaces/inkscape"
   xmlns:sodipodi="http://sodipodi.sourceforge.net/DTD/sodipodi-0.dtd"
   xmlns="http://www.w3.org/2000/svg"
   xmlns:svg="http://www.w3.org/2000/svg">
  <defs
     id="defs406">
    <rect
       x="811.11052"
       y="781.66477"
       width="191.31589"
       height="158.46865"
       id="rect1848" />
    <rect
       x="473.69007"
       y="544.72211"
       width="158.28281"
       height="107.31174"
       id="rect1792" />
  </defs>
  <sodipodi:namedview
     id="namedview404"
     pagecolor="#ffffff"
     bordercolor="#111111"
     borderopacity="1"
     inkscape:showpageshadow="0"
     inkscape:pageopacity="0"
     inkscape:pagecheckerboard="1"
     inkscape:deskcolor="#d1d1d1"
     showgrid="false"
     inkscape:zoom="0.5"
     inkscape:cx="516"
     inkscape:cy="461"
     inkscape:window-width="1866"
     inkscape:window-height="1016"
     inkscape:window-x="1974"
     inkscape:window-y="27"
     inkscape:window-maximized="1"
     inkscape:current-layer="svg402" />
  <g
     stroke-width="2.00"
     fill="none"
     stroke-linecap="butt"
     id="g254">
    <path
       stroke="#907f7f"
       vector-effect="non-scaling-stroke"
       d="   M 465.75 725.41   L 645.79 725.87   Q 646.93 725.88 646.40 726.89   C 644.59 730.31 641.68 733.89 640.04 736.87   C 630.71 753.85 633.22 773.73 649.47 785.51   A 0.95 0.94 18.7 0 1 649.86 786.29   L 649.57 809.00   Q 649.57 809.66 648.91 809.69   C 636.05 810.22 623.08 809.13 612.56 809.32   C 595.34 809.62 579.99 822.88 580.05 840.76   Q 580.14 863.72 580.30 886.65   Q 580.30 887.13 580.78 887.12   C 614.61 886.29 648.53 886.77 682.37 886.73   C 698.83 886.71 711.03 881.89 717.96 866.38   C 725.43 849.67 722.27 832.33 708.88 819.39   C 706.75 817.34 700.29 811.89 699.94 809.24   Q 699.25 803.96 698.78 783.62   Q 698.76 783.12 699.12 782.77   Q 712.98 768.92 711.13 749.25   C 710.42 741.66 706.80 730.41 699.99 725.78   Q 699.71 725.60 700.04 725.60   L 730.43 725.94   Q 730.74 725.95 730.74 725.64   L 730.41 534.79   Q 730.41 534.35 730.72 534.66   C 737.01 540.88 751.52 543.35 759.63 543.58   C 761.37 543.63 763.16 542.80 764.76 542.16   Q 765.25 541.97 765.65 542.31   Q 773.85 549.16 783.05 554.59   Q 783.49 554.85 783.44 555.36   C 782.73 562.52 785.11 571.46 790.82 576.31   Q 791.19 576.62 791.00 577.06   C 783.68 594.80 781.21 612.94 797.20 627.03   C 803.30 632.41 813.19 636.20 820.65 631.12   C 825.07 628.11 834.17 621.79 835.42 616.47   A 0.33 0.33 0.0 0 1 836.01 616.36   C 845.39 630.51 853.35 645.66 862.49 660.13   A 1.46 1.46 0.0 0 0 864.22 660.72   Q 880.91 654.67 895.21 643.67   C 913.27 629.78 923.03 604.78 915.22 582.75   Q 911.50 572.26 905.42 556.83   Q 899.33 541.41 897.73 538.38   C 887.65 519.39 865.22 506.61 843.12 511.38   Q 842.63 511.48 842.54 511.00   C 840.61 500.68 830.90 492.14 821.53 489.10   C 815.54 487.16 809.19 488.19 803.31 490.10   Q 802.84 490.25 802.53 489.85   C 793.00 477.47 779.56 470.93 764.24 468.83   C 753.92 467.42 739.96 467.95 731.24 474.64   Q 730.83 474.95 730.83 474.44   Q 730.36 391.35 730.52 308.26   C 730.56 282.51 715.86 261.24 690.06 256.13   Q 684.56 255.04 672.37 255.30   Q 660.48 255.57 648.55 255.50   Q 648.05 255.49 647.92 255.01   Q 647.15 252.02 646.25 249.08   C 643.89 241.47 637.54 233.05 628.70 233.24   Q 628.16 233.25 628.20 232.72   C 629.54 213.10 618.86 208.42 602.28 205.33   Q 601.54 205.19 601.76 204.48   L 608.98 180.80   Q 609.16 180.19 609.80 180.24   Q 622.48 181.16 631.77 173.63   C 636.55 169.77 641.02 165.41 643.33 159.82   C 653.13 136.14 638.88 112.96 614.00 109.55   C 594.76 106.90 574.58 118.84 571.99 139.15   C 570.02 154.59 580.03 168.03 592.84 176.14   Q 593.25 176.40 593.10 176.87   L 584.24 204.39   Q 584.08 204.89 583.57 204.76   C 565.30 200.31 546.21 198.34 534.68 215.89   C 530.49 222.26 527.59 228.85 528.92 236.48   Q 529.02 237.05 528.45 236.96   C 514.45 234.81 509.84 243.41 507.05 255.27   Q 506.93 255.76 506.43 255.76   Q 465.47 255.72 424.53 255.78   Q 414.66 255.79 409.73 257.05   C 398.94 259.83 390.82 266.21 383.74 274.98   C 375.60 285.06 374.23 298.80 374.24 311.47   Q 374.30 370.95 374.19 430.44   Q 374.13 459.96 374.49 470.37   C 374.52 471.33 374.92 471.87 375.22 472.74   Q 375.43 473.35 374.83 473.12   C 352.14 464.48 324.45 468.55 308.97 488.44   Q 308.65 488.85 308.16 488.70   C 290.55 483.43 275.47 493.03 269.97 509.79   A 0.65 0.65 0.0 0 1 269.27 510.24   Q 256.24 508.44 245.56 509.10   C 226.20 510.29 210.01 523.86 202.13 541.59   Q 194.49 558.80 187.15 576.16   Q 182.26 587.76 181.35 593.90   C 178.74 611.52 186.18 628.27 199.43 640.07   C 209.48 649.01 221.35 656.78 234.28 660.11   Q 234.76 660.23 235.16 659.93   Q 238.19 657.60 239.74 655.47   Q 249.22 642.38 260.38 624.10   Q 262.68 620.34 264.33 616.19   Q 264.51 615.72 264.82 616.12   Q 272.24 625.78 282.57 632.09   C 286.43 634.45 289.44 634.03 293.50 632.74   C 319.22 624.55 324.20 599.36 313.63 577.02   Q 313.42 576.56 313.79 576.23   C 320.68 570.06 320.92 563.27 321.74 554.08   Q 321.78 553.63 322.22 553.49   Q 331.39 550.62 338.30 543.93   Q 338.66 543.59 339.15 543.65   Q 358.48 545.88 374.39 535.00   Q 374.81 534.72 374.80 535.22   C 373.78 598.67 374.22 662.18 374.22 725.64   Q 374.22 726.12 374.68 726.23   Q 375.18 726.36 375.39 725.94   A 0.57 0.57 0.0 0 1 375.90 725.63   L 415.21 726.46   Q 415.92 726.48 415.49 727.05   C 408.24 736.86 402.72 750.94 405.66 763.18   C 407.11 769.22 411.25 778.98 416.86 782.43   A 0.25 0.25 0.0 0 1 416.77 782.89   L 415.18 783.21   Q 414.59 783.32 414.55 783.92   C 414.00 792.73 413.58 801.29 412.24 810.03   A 0.89 0.89 0.0 0 1 411.73 810.71   C 391.61 819.93 383.32 841.21 390.17 862.00   C 394.15 874.10 403.02 881.95 415.11 885.35   Q 419.92 886.70 428.95 886.70   Q 480.43 886.71 532.04 887.03   A 0.57 0.57 0.0 0 0 532.62 886.47   Q 532.99 869.58 533.16 852.70   Q 533.30 838.95 531.68 833.06   C 527.43 817.57 514.33 809.37 498.18 809.47   Q 481.72 809.56 465.18 809.47   Q 464.67 809.47 464.68 808.96   L 465.05 786.77   Q 465.05 786.21 465.49 785.85   Q 466.42 785.09 468.15 783.65   C 487.07 767.95 480.80 741.24 465.67 725.58   Q 465.51 725.41 465.75 725.41"
       id="path2" />
    <path
       stroke="#87421f"
       vector-effect="non-scaling-stroke"
       d="   M 604.66 164.18   C 631.92 170.57 638.92 132.14 615.12 126.00"
       id="path4" />
    <path
       stroke="#907f7f"
       vector-effect="non-scaling-stroke"
       d="   M 615.12 126.00   C 607.11 123.65 601.01 125.08 595.01 130.09   C 582.88 140.23 588.69 153.98 599.33 162.17   Q 601.31 163.69 604.66 164.18"
       id="path6" />
    <path
       stroke="#f3c19d"
       vector-effect="non-scaling-stroke"
       d="   M 615.12 126.00   C 606.40 128.68 601.36 131.55 597.19 138.95   C 593.65 145.24 596.56 154.21 600.34 159.72   C 601.61 161.57 604.22 162.27 604.66 164.18"
       id="path8" />
    <path
       stroke="#87421f"
       vector-effect="non-scaling-stroke"
       d="   M 566.95 233.90   Q 589.28 234.06 611.38 235.88   Q 611.96 235.93 611.92 235.35   Q 611.53 230.53 612.42 225.76   Q 612.52 225.24 612.01 225.09   C 602.32 222.10 592.03 221.09 582.01 219.69   Q 578.12 219.16 574.29 219.15"
       id="path10" />
    <path
       stroke="#897e7f"
       vector-effect="non-scaling-stroke"
       d="   M 574.29 219.15   C 569.89 218.78 555.48 217.41 552.50 220.65   Q 547.71 225.86 544.80 232.34   Q 544.44 233.14 545.31 233.17   L 566.95 233.90"
       id="path12" />
    <path
       stroke="#edc09e"
       vector-effect="non-scaling-stroke"
       d="   M 574.29 219.15   L 573.48 220.26"
       id="path14" />
    <path
       stroke="#adae98"
       vector-effect="non-scaling-stroke"
       d="   M 573.48 220.26   Q 570.13 224.88 568.22 230.21"
       id="path16" />
    <path
       stroke="#edc09e"
       vector-effect="non-scaling-stroke"
       d="   M 568.22 230.21   L 566.95 233.90"
       id="path18" />
    <path
       stroke="#ab7238"
       vector-effect="non-scaling-stroke"
       d="   M 568.22 230.21   Q 568.94 230.26 569.41 229.42   C 570.72 227.07 573.59 222.87 573.48 220.26"
       id="path20" />
    <path
       stroke="#897e7f"
       vector-effect="non-scaling-stroke"
       d="   M 528.71 249.22   Q 525.80 250.81 525.72 253.65   Q 525.70 254.19 526.24 254.21   C 548.60 255.14 570.93 256.25 593.29 255.03"
       id="path22" />
    <path
       stroke="#87421f"
       vector-effect="non-scaling-stroke"
       d="   M 593.29 255.03   Q 612.61 254.30 632.49 256.06   Q 633.03 256.11 632.70 255.67   Q 629.07 250.77 625.19 245.94   C 620.10 239.61 601.07 239.44 592.00 239.34   Q 562.55 239.01 545.25 239.24   C 538.43 239.33 533.69 245.20 528.71 249.22"
       id="path24" />
    <path
       stroke="#edc09e"
       vector-effect="non-scaling-stroke"
       d="   M 593.29 255.03   Q 588.58 252.22 585.75 252.22   Q 565.54 252.21 545.53 250.26"
       id="path26" />
    <path
       stroke="#ec9f61"
       vector-effect="non-scaling-stroke"
       d="   M 545.53 250.26   Q 539.17 248.51 532.69 249.31"
       id="path28" />
    <path
       stroke="#edc09e"
       vector-effect="non-scaling-stroke"
       d="   M 532.69 249.31   L 528.71 249.22"
       id="path30" />
    <path
       stroke="#eedbc1"
       vector-effect="non-scaling-stroke"
       d="   M 545.53 250.26   Q 538.90 250.66 532.69 249.31"
       id="path32" />
    <path
       stroke="#6c797b"
       vector-effect="non-scaling-stroke"
       d="   M 501.44 271.81   L 437.49 271.99"
       id="path34" />
    <path
       stroke="#897e7f"
       vector-effect="non-scaling-stroke"
       d="   M 437.49 271.99   C 424.37 271.75 410.41 270.94 401.16 281.58   C 393.51 290.37 391.66 304.21 391.60 316.25   C 391.17 409.65 391.72 503.04 391.29 596.44   Q 391.11 634.58 391.67 673.76   Q 391.68 674.64 392.56 674.66   L 407.05 675.03"
       id="path36" />
    <path
       stroke="#556b6d"
       vector-effect="non-scaling-stroke"
       d="   M 407.05 675.03   C 417.32 675.05 428.13 674.63 438.41 675.79   Q 440.81 676.06 444.22 675.72   Q 448.75 675.28 456.51 678.00   C 467.88 681.97 474.23 695.73 474.23 707.17   A 0.58 0.58 0.0 0 0 474.80 707.75   Q 544.45 707.76 613.94 707.74   C 616.93 707.73 620.60 707.36 623.95 707.41   Q 624.45 707.41 624.52 706.92   Q 628.17 683.16 650.86 676.62   C 652.93 676.02 654.32 676.79 656.44 676.57   Q 659.97 676.19 660.08 676.19   Q 667.83 675.94 674.52 674.72"
       id="path38" />
    <path
       stroke="#364745"
       vector-effect="non-scaling-stroke"
       d="   M 674.52 674.72   L 711.40 673.64   A 0.67 0.66 89.6 0 0 712.05 672.97   L 712.00 452.77   Q 712.00 451.60 710.98 452.19   C 700.10 458.59 686.30 462.67 674.48 467.10"
       id="path40" />
    <path
       stroke="#556b6d"
       vector-effect="non-scaling-stroke"
       d="   M 674.48 467.10   L 657.10 474.13"
       id="path42" />
    <path
       stroke="#180201"
       vector-effect="non-scaling-stroke"
       d="   M 657.10 474.13   C 656.74 472.87 655.92 472.44 654.75 472.96   C 653.85 473.36 653.05 473.30 652.19 473.72   Q 642.19 478.68 631.85 482.79   Q 631.39 482.97 631.29 483.45   L 631.01 484.76"
       id="path44" />
    <path
       stroke="#556b6d"
       vector-effect="non-scaling-stroke"
       d="   M 631.01 484.76   C 615.98 492.37 604.10 499.56 585.99 502.48   Q 553.64 507.68 521.29 502.52   Q 509.73 500.68 501.46 495.57   Q 488.55 487.59 478.90 483.65   Q 449.33 471.58 419.93 459.11   C 414.10 456.64 406.44 453.48 403.09 448.61"
       id="path46" />
    <path
       stroke="#897e7f"
       vector-effect="non-scaling-stroke"
       d="   M 403.09 448.61   L 411.49 442.53"
       id="path48" />
    <path
       stroke="#556b6d"
       vector-effect="non-scaling-stroke"
       d="   M 411.49 442.53   Q 443.66 453.59 475.02 466.35   Q 475.52 466.56 475.60 466.02   Q 476.23 461.84 475.29 458.54"
       id="path50" />
    <path
       stroke="#6c797b"
       vector-effect="non-scaling-stroke"
       d="   M 475.29 458.54   Q 476.53 446.76 483.70 438.22"
       id="path52" />
    <path
       stroke="#556b6d"
       vector-effect="non-scaling-stroke"
       d="   M 483.70 438.22   Q 489.35 433.74 496.01 431.75   Q 499.59 430.68 505.61 430.80   C 533.53 431.33 561.59 430.65 603.96 430.77   Q 604.05 430.77 610.51 430.41   C 623.34 429.69 634.59 438.71 637.54 450.97   C 638.52 455.03 638.28 459.94 638.25 464.45   Q 638.24 465.01 638.77 464.80   Q 653.35 458.90 667.65 452.63   Q 671.13 451.11 674.84 450.37"
       id="path54" />
    <path
       stroke="#364745"
       vector-effect="non-scaling-stroke"
       d="   M 674.84 450.37   Q 689.18 445.62 703.03 439.29   C 703.89 438.90 704.12 438.35 704.86 437.81   Q 705.54 437.31 705.38 438.15   L 705.24 438.86   A 0.65 0.64 13.9 0 0 705.69 439.60   L 711.65 441.33   Q 712.17 441.48 712.16 440.94   Q 711.89 375.61 712.01 310.27   C 712.02 305.11 711.77 298.56 710.72 294.51   C 707.98 283.91 698.87 275.75 688.74 272.86   Q 683.86 271.47 673.01 271.57   Q 658.77 271.71 643.70 271.77"
       id="path56" />
    <path
       stroke="#556b6d"
       vector-effect="non-scaling-stroke"
       d="   M 643.70 271.77   L 501.44 271.81"
       id="path58" />
    <path
       stroke="#68b2b2"
       vector-effect="non-scaling-stroke"
       d="   M 643.70 271.77   C 666.60 282.51 673.22 299.16 673.74 323.01   Q 675.10 385.88 673.96 448.76   Q 673.95 449.21 674.30 449.48   Q 674.76 449.83 674.84 450.37"
       id="path60" />
    <path
       stroke="#9ee4e8"
       vector-effect="non-scaling-stroke"
       d="   M 483.70 438.22   Q 473.59 445.19 475.29 458.54"
       id="path62" />
    <path
       stroke="#bbe9ec"
       vector-effect="non-scaling-stroke"
       d="   M 411.49 442.53   Q 410.60 441.68 408.06 442.06   Q 407.85 442.09 407.66 441.98   L 407.24 441.73   A 0.12 0.12 0.0 0 1 407.28 441.51   L 407.77 441.40"
       id="path64" />
    <path
       stroke="#4a6d6e"
       vector-effect="non-scaling-stroke"
       d="   M 407.77 441.40   L 410.21 441.75   A 1.24 1.24 0.0 0 0 411.63 440.51   Q 411.14 381.18 411.48 323.02   C 411.56 309.35 414.15 299.91 428.27 296.39   Q 431.37 295.62 435.78 295.85   C 458.79 297.09 482.04 296.15 505.10 296.26   C 514.63 296.31 512.30 284.49 503.53 287.18"
       id="path66" />
    <path
       stroke="#9ee4e8"
       vector-effect="non-scaling-stroke"
       d="   M 503.53 287.18   Q 503.71 279.22 501.44 271.81"
       id="path68" />
    <path
       stroke="#7e8080"
       vector-effect="non-scaling-stroke"
       d="   M 410.95 298.03   C 404.43 305.81 403.77 311.41 403.75 320.25   Q 403.63 377.88 404.24 435.50   Q 404.28 439.35 407.77 441.40"
       id="path70" />
    <path
       stroke="#bbe9ec"
       vector-effect="non-scaling-stroke"
       d="   M 403.09 448.61   L 401.19 448.71   Q 399.23 448.81 399.96 450.63   Q 403.77 460.12 404.50 469.00"
       id="path72" />
    <path
       stroke="#7e8080"
       vector-effect="non-scaling-stroke"
       d="   M 404.50 469.00   Q 403.02 488.04 404.48 507.06"
       id="path74" />
    <path
       stroke="#9cc5c4"
       vector-effect="non-scaling-stroke"
       d="   M 404.48 507.06   L 404.43 547.19"
       id="path76" />
    <path
       stroke="#bbe9ec"
       vector-effect="non-scaling-stroke"
       d="   M 404.43 547.19   Q 403.82 563.15 404.75 579.49"
       id="path78" />
    <path
       stroke="#7e8080"
       vector-effect="non-scaling-stroke"
       d="   M 404.75 579.49   Q 403.81 580.87 403.80 582.25   Q 403.61 610.04 404.07 651.75   Q 404.11 655.71 408.32 656.70"
       id="path80" />
    <path
       stroke="#bbe9ec"
       vector-effect="non-scaling-stroke"
       d="   M 408.32 656.70   Q 409.75 663.35 407.31 671.23   Q 407.16 671.71 406.78 672.03   Q 405.38 673.21 407.05 675.03"
       id="path82" />
    <path
       stroke="#617b7c"
       vector-effect="non-scaling-stroke"
       d="   M 503.53 287.18   Q 504.05 287.56 503.16 288.12   Q 502.79 288.34 502.29 288.35   Q 470.03 288.93 437.76 288.51   Q 427.78 288.38 423.38 289.72   Q 415.81 292.04 410.95 298.03"
       id="path84" />
    <path
       stroke="#d2f7fa"
       vector-effect="non-scaling-stroke"
       d="   M 410.95 298.03   Q 406.27 294.17 400.03 291.66   Q 399.61 291.49 399.14 291.48   Q 397.62 291.46 397.91 289.70   C 398.57 285.57 407.20 278.02 411.20 276.56   C 419.48 273.53 427.97 273.20 436.64 273.23   A 1.28 1.28 0.0 0 0 437.75 272.59   Q 437.82 272.47 437.49 271.99"
       id="path86" />
    <path
       stroke="#4a6d6e"
       vector-effect="non-scaling-stroke"
       d="   M 631.01 484.76   L 657.10 474.13"
       id="path88" />
    <path
       stroke="#68b2b2"
       vector-effect="non-scaling-stroke"
       d="   M 674.48 467.10   L 674.52 674.72"
       id="path90" />
    <path
       stroke="#4a6d6e"
       vector-effect="non-scaling-stroke"
       d="   M 408.32 656.70   Q 411.75 654.15 411.57 648.68   C 410.89 628.36 411.51 607.72 411.49 587.37   C 411.49 582.51 410.18 579.13 404.75 579.49"
       id="path92" />
    <path
       stroke="#68b2b2"
       vector-effect="non-scaling-stroke"
       d="   M 404.43 547.19   Q 405.96 544.73 405.82 540.25   Q 405.41 526.63 406.16 510.05   C 406.21 508.90 406.81 508.08 407.51 507.27"
       id="path94" />
    <path
       stroke="#4a6d6e"
       vector-effect="non-scaling-stroke"
       d="   M 407.51 507.27   C 409.86 507.47 411.03 506.26 411.14 503.91   Q 411.71 491.89 411.40 477.02   Q 411.25 470.16 404.50 469.00"
       id="path96" />
    <path
       stroke="#2b4946"
       vector-effect="non-scaling-stroke"
       d="   M 407.51 507.27   L 404.48 507.06"
       id="path98" />
    <path
       stroke="#7d1619"
       vector-effect="non-scaling-stroke"
       d="   M 496.45 457.78   C 496.79 478.63 513.99 488.55 532.50 490.25   Q 548.17 491.69 574.81 490.72   C 589.45 490.19 608.83 483.03 615.32 468.53   C 617.74 463.12 621.07 447.79 610.46 447.95   Q 606.07 448.02 601.67 448.61   Q 601.12 448.68 601.27 449.21   C 605.20 463.48 590.39 474.47 577.75 475.49   Q 564.09 476.60 543.94 476.36   Q 534.86 476.25 527.76 472.50   C 517.95 467.33 515.88 459.71 514.31 449.31   Q 514.24 448.84 513.78 448.70   C 505.74 446.36 496.26 446.42 496.45 457.78"
       id="path100" />
    <path
       stroke="#907f7f"
       vector-effect="non-scaling-stroke"
       d="   M 526.11 449.25   C 528.33 462.06 533.67 462.32 545.08 462.66   Q 563.04 463.19 580.95 461.97   C 587.45 461.52 589.51 455.03 589.75 449.53   Q 589.77 449.07 589.31 449.07   L 526.46 448.83   A 0.36 0.35 -5.4 0 0 526.11 449.25"
       id="path102" />
    <path
       stroke="#87421f"
       vector-effect="non-scaling-stroke"
       d="   M 770.06 501.63   A 0.97 0.97 0.0 0 1 769.53 500.15   Q 774.03 493.68 781.98 493.20   Q 782.32 493.18 782.03 493.01   C 772.77 487.63 760.26 483.27 749.95 485.26   C 744.13 486.38 733.23 491.94 731.78 498.48   Q 730.18 505.70 732.42 512.94   C 736.14 525.00 753.07 528.35 763.67 528.15   Q 764.73 528.13 765.08 527.13   C 769.31 515.26 774.81 505.70 784.97 498.00   Q 785.23 497.80 785.30 497.50   Q 785.39 497.09 785.03 497.31   C 781.70 499.35 773.92 502.76 770.06 501.63"
       id="path104" />
    <path
       stroke="#87421f"
       vector-effect="non-scaling-stroke"
       d="   M 336.58 500.60   C 331.23 504.25 327.02 502.16 322.52 498.01   Q 322.44 497.93 322.34 497.97   Q 322.21 498.01 322.08 498.06   Q 321.78 498.16 322.01 498.37   C 332.18 507.84 336.15 517.04 341.33 528.56   A 1.06 1.04 -5.0 0 0 342.05 529.15   C 344.08 529.60 346.48 528.88 347.75 528.82   C 362.62 528.16 379.49 521.38 377.23 503.01   Q 376.60 497.88 372.51 494.02   C 358.69 480.98 343.49 484.13 327.70 491.52   A 0.36 0.36 0.0 0 0 327.80 492.21   C 331.66 492.78 334.95 496.77 336.75 499.89   Q 336.99 500.32 336.58 500.60"
       id="path106" />
    <path
       stroke="#885d42"
       vector-effect="non-scaling-stroke"
       d="   M 303.41 514.48   C 312.67 520.41 320.40 525.31 323.84 534.39   Q 324.08 535.01 324.52 534.52   C 327.24 531.51 330.20 528.07 334.16 526.80   Q 334.73 526.62 334.48 526.08   C 329.35 514.71 321.34 505.35 309.10 501.30"
       id="path108" />
    <path
       stroke="#897e7f"
       vector-effect="non-scaling-stroke"
       d="   M 309.10 501.30   C 299.93 498.53 292.97 502.70 286.31 508.51   Q 285.84 508.92 286.44 509.11   L 303.41 514.48"
       id="path110" />
    <path
       stroke="#eedbc1"
       vector-effect="non-scaling-stroke"
       d="   M 309.10 501.30   Q 307.56 506.73 306.64 512.12   C 306.31 514.10 305.24 514.52 303.41 514.48"
       id="path112" />
    <path
       stroke="#87421f"
       vector-effect="non-scaling-stroke"
       d="   M 772.41 528.88   L 777.33 530.34   Q 777.88 530.51 777.92 529.93   C 778.64 519.45 784.87 510.52 791.68 503.02   A 0.39 0.39 0.0 0 0 791.21 502.42   C 780.61 508.02 775.54 517.21 772.04 528.17   Q 771.87 528.72 772.41 528.88"
       id="path114" />
    <path
       stroke="#87421f"
       vector-effect="non-scaling-stroke"
       d="   M 789.40 543.49   A 0.57 0.57 0.0 0 0 790.34 543.34   C 796.90 528.36 809.68 517.84 826.29 516.20   A 0.38 0.38 0.0 0 0 826.59 515.63   C 821.03 505.98 812.95 499.88 801.73 506.29   C 789.98 513.01 778.35 531.15 789.40 543.49"
       id="path116" />
    <path
       stroke="#87421f"
       vector-effect="non-scaling-stroke"
       d="   M 314.15 528.89   Q 305.46 519.75 292.83 517.64   Q 289.71 517.12 292.26 518.99   C 302.94 526.83 311.80 534.06 317.40 546.33   A 0.47 0.47 0.0 0 0 318.30 546.19   Q 319.09 539.23 316.52 532.62   Q 315.70 530.52 314.15 528.89"
       id="path118" />
    <path
       stroke="#885d42"
       vector-effect="non-scaling-stroke"
       d="   M 220.79 555.26   Q 233.68 549.19 248.04 547.50"
       id="path120" />
    <path
       stroke="#87421f"
       vector-effect="non-scaling-stroke"
       d="   M 248.04 547.50   C 248.15 544.05 248.73 540.17 252.50 540.26   C 257.46 540.38 269.76 540.36 271.97 543.19"
       id="path122" />
    <path
       stroke="#473019"
       vector-effect="non-scaling-stroke"
       d="   M 271.97 543.19   C 272.24 546.92 272.62 549.88 275.82 552.22   Q 285.10 559.02 295.96 563.51"
       id="path124" />
    <path
       stroke="#87421f"
       vector-effect="non-scaling-stroke"
       d="   M 295.96 563.51   L 300.26 566.32   Q 300.75 566.64 301.17 566.23   C 306.37 561.10 308.72 554.77 305.22 547.79   C 298.53 534.42 280.87 525.40 266.27 525.30"
       id="path126" />
    <path
       stroke="#897e7f"
       vector-effect="non-scaling-stroke"
       d="   M 266.27 525.30   C 236.98 519.80 219.40 534.74 211.11 561.49   A 0.26 0.25 76.6 0 0 211.53 561.75   Q 215.58 557.86 220.79 555.26"
       id="path128" />
    <path
       stroke="#edc09e"
       vector-effect="non-scaling-stroke"
       d="   M 266.27 525.30   Q 257.68 528.36 254.70 530.68   Q 243.07 539.74 229.38 545.12"
       id="path130" />
    <path
       stroke="#eedbc1"
       vector-effect="non-scaling-stroke"
       d="   M 229.38 545.12   Q 224.17 549.26 220.31 553.56   Q 219.70 554.25 220.79 555.26"
       id="path132" />
    <path
       stroke="#ab7238"
       vector-effect="non-scaling-stroke"
       d="   M 295.96 563.51   C 291.68 551.45 284.17 546.48 271.97 543.19"
       id="path134" />
    <path
       stroke="#ec9f61"
       vector-effect="non-scaling-stroke"
       d="   M 248.04 547.50   C 247.02 540.40 231.44 552.38 229.38 545.12"
       id="path136" />
    <path
       stroke="#473019"
       vector-effect="non-scaling-stroke"
       d="   M 807.74 566.19   Q 808.81 565.93 809.69 565.17   Q 816.74 559.10 825.56 555.51   A 0.75 0.74 -13.7 0 0 826.02 554.77   L 825.35 545.50"
       id="path138" />
    <path
       stroke="#87421f"
       vector-effect="non-scaling-stroke"
       d="   M 825.35 545.50   C 832.98 541.25 843.39 538.98 852.20 541.29   C 855.95 542.27 857.25 544.76 856.67 548.45   Q 856.58 549.02 857.16 549.10   C 869.29 550.69 882.09 555.15 891.36 563.27   Q 892.10 563.91 891.72 563.01   C 891.36 562.17 890.58 561.34 890.30 560.53   C 878.49 525.90 852.20 519.68 819.22 530.74   Q 809.35 534.06 803.45 542.12   C 796.96 551.00 796.07 560.99 807.25 566.60   Q 807.53 566.74 807.66 566.47   Q 807.73 566.33 807.74 566.19"
       id="path140" />
    <path
       stroke="#ab7238"
       vector-effect="non-scaling-stroke"
       d="   M 825.35 545.50   C 814.30 546.17 807.29 555.33 807.74 566.19"
       id="path142" />
    <path
       stroke="#6c797b"
       vector-effect="non-scaling-stroke"
       d="   M 253.50 561.74   Q 228.27 561.14 209.18 578.48"
       id="path144" />
    <path
       stroke="#897e7f"
       vector-effect="non-scaling-stroke"
       d="   M 209.18 578.48   Q 204.65 582.99 201.58 589.10   Q 198.56 595.13 198.33 601.50   C 197.54 623.56 215.01 635.38 232.04 645.10   Q 232.48 645.36 232.51 644.85   Q 232.53 644.53 232.37 644.18"
       id="path146" />
    <path
       stroke="#364745"
       vector-effect="non-scaling-stroke"
       d="   M 232.37 644.18   C 233.05 642.96 234.33 642.24 235.08 641.15   Q 248.54 621.78 261.92 602.00   A 0.63 0.62 -49.2 0 0 261.87 601.23   L 245.51 582.63   A 1.46 1.46 0.0 0 0 243.76 582.28   Q 237.87 585.17 232.70 589.69   Q 223.76 597.50 214.55 613.47"
       id="path148" />
    <path
       stroke="#897e7f"
       vector-effect="non-scaling-stroke"
       d="   M 214.55 613.47   C 209.92 604.27 213.86 594.85 220.62 588.41"
       id="path150" />
    <path
       stroke="#6c797b"
       vector-effect="non-scaling-stroke"
       d="   M 220.62 588.41   C 227.86 580.24 242.51 571.04 254.18 574.31"
       id="path152" />
    <path
       stroke="#364745"
       vector-effect="non-scaling-stroke"
       d="   M 254.18 574.31   C 260.11 577.98 264.49 584.56 269.19 589.78   C 275.67 596.96 274.97 610.89 282.93 615.56   Q 290.13 619.78 295.73 616.18   C 302.38 611.92 303.31 601.02 302.58 593.66   Q 300.87 576.40 288.42 565.39   C 287.49 564.57 285.71 563.36 284.76 563.21   Q 269.21 560.78 253.50 561.74"
       id="path154" />
    <path
       stroke="#7fc0c0"
       vector-effect="non-scaling-stroke"
       d="   M 254.18 574.31   L 252.67 569.27   Q 252.52 568.77 252.68 568.26   L 254.55 562.27   Q 254.69 561.80 254.21 561.78   L 253.50 561.74"
       id="path156" />
    <path
       stroke="#d2f7fa"
       vector-effect="non-scaling-stroke"
       d="   M 220.62 588.41   Q 212.15 584.46 209.18 578.48"
       id="path158" />
    <path
       stroke="#9cc5c4"
       vector-effect="non-scaling-stroke"
       d="   M 214.55 613.47   Q 216.23 619.48 219.85 625.42   Q 224.09 632.36 231.97 642.85   Q 232.24 643.22 232.23 643.68   Q 232.22 644.11 232.37 644.18"
       id="path160" />
    <path
       stroke="#6c797b"
       vector-effect="non-scaling-stroke"
       d="   M 801.54 608.38   Q 802.99 613.17 806.21 616.06   C 811.30 620.63 815.48 618.40 819.88 614.78   C 826.13 609.63 827.51 601.79 831.39 595.63   Q 834.49 590.70 838.90 585.88"
       id="path162" />
    <path
       stroke="#556b6d"
       vector-effect="non-scaling-stroke"
       d="   M 838.90 585.88   Q 842.77 581.88 847.18 577.18   C 853.67 570.26 882.11 592.34 885.13 599.16   C 887.06 603.52 885.51 609.81 883.58 613.68"
       id="path164" />
    <path
       stroke="#364745"
       vector-effect="non-scaling-stroke"
       d="   M 883.58 613.68   C 879.26 603.13 869.15 590.14 859.21 585.50   Q 858.48 585.16 857.98 585.79   L 844.91 602.11   A 0.61 0.60 49.8 0 0 844.86 602.77   L 867.47 643.72"
       id="path166" />
    <path
       stroke="#556b6d"
       vector-effect="non-scaling-stroke"
       d="   M 867.47 643.72   Q 867.61 644.39 867.99 644.86   Q 868.31 645.25 868.74 644.98   Q 880.45 637.60 887.33 630.85   C 896.91 621.45 902.99 605.38 899.49 591.96   C 896.38 580.04 883.12 571.13 872.05 566.55   C 861.11 562.03 845.57 561.18 834.31 562.12   C 823.89 562.99 816.37 564.62 810.69 572.69   Q 799.16 589.06 801.54 608.38"
       id="path168" />
    <path
       stroke="#68b2b2"
       vector-effect="non-scaling-stroke"
       d="   M 867.47 643.72   Q 877.39 629.55 883.58 613.68"
       id="path170" />
    <path
       stroke="#9ee4e8"
       vector-effect="non-scaling-stroke"
       d="   M 838.90 585.88   Q 831.82 590.47 829.04 597.05   C 825.41 605.62 823.17 611.66 814.85 616.62   C 810.63 619.15 805.12 613.24 803.68 609.32   Q 803.53 608.91 803.10 608.80   L 801.54 608.38"
       id="path172" />
    <path
       stroke="#364745"
       vector-effect="non-scaling-stroke"
       d="   M 466.61 706.58   C 468.59 695.44 458.32 685.31 449.20 681.13   C 442.35 678.00 433.48 678.28 425.95 679.05   A 0.83 0.83 0.0 0 0 425.26 680.17   C 428.52 688.71 428.23 698.65 428.26 707.74   Q 428.27 708.19 428.71 708.19   L 465.04 707.91   Q 466.38 707.90 466.61 706.58"
       id="path174" />
    <path
       stroke="#364745"
       vector-effect="non-scaling-stroke"
       d="   M 631.98 707.67   L 680.39 708.00   Q 680.81 708.00 680.83 707.59   L 682.16 687.91   A 2.22 2.21 -70.4 0 0 681.23 685.94   C 665.46 674.70 646.69 676.67 635.73 693.25   Q 631.62 699.48 631.26 706.91   A 0.73 0.73 0.0 0 0 631.98 707.67"
       id="path176" />
    <path
       stroke="#885d42"
       vector-effect="non-scaling-stroke"
       d="   M 419.72 708.96   L 419.44 685.98   A 0.25 0.25 0.0 0 0 419.19 685.73   L 392.58 686.06   A 0.98 0.20 -0.7 0 0 391.60 686.27   L 391.88 709.35   A 0.98 0.20 -0.7 0 0 392.86 709.54   L 419.47 709.21   A 0.25 0.25 0.0 0 0 419.72 708.96"
       id="path178" />
    <path
       stroke="#87421f"
       vector-effect="non-scaling-stroke"
       d="   M 689.14 709.79   A 0.35 0.35 0.0 0 0 689.49 710.13   L 713.04 709.69   A 0.35 0.35 0.0 0 0 713.38 709.33   L 712.91 687.60   A 0.35 0.35 0.0 0 0 712.58 687.26   L 689.31 685.66   A 0.35 0.35 0.0 0 0 688.93 686.01   L 689.14 709.79"
       id="path180" />
    <path
       stroke="#87421f"
       vector-effect="non-scaling-stroke"
       d="   M 692.10 757.08   C 692.91 744.35 689.83 735.01 679.56 727.09   A 0.60 0.60 0.0 0 0 678.60 727.54   Q 677.65 752.88 678.30 778.22   A 0.62 0.62 0.0 0 0 679.24 778.74   C 687.33 773.99 691.48 766.62 692.10 757.08"
       id="path182" />
    <path
       stroke="#87421f"
       vector-effect="non-scaling-stroke"
       d="   M 654.78 766.60   C 658.09 774.12 665.98 779.32 673.90 780.40   Q 674.35 780.46 674.35 780.00   L 674.12 727.99   A 0.70 0.69 -15.8 0 0 673.06 727.40   C 669.30 729.73 665.03 732.11 662.12 735.22   C 654.98 742.85 650.33 756.48 654.78 766.60"
       id="path184" />
    <path
       stroke="#897e7f"
       vector-effect="non-scaling-stroke"
       d="   M 436.50 730.21   C 430.01 734.79 426.29 742.50 424.23 750.26   C 421.06 762.22 428.34 773.61 439.16 778.77"
       id="path186" />
    <path
       stroke="#87421f"
       vector-effect="non-scaling-stroke"
       d="   M 439.16 778.77   Q 458.05 779.89 461.44 763.03   C 464.79 746.37 451.81 734.77 437.49 729.77   Q 437.04 729.61 436.50 730.21"
       id="path188" />
    <path
       stroke="#edc09e"
       vector-effect="non-scaling-stroke"
       d="   M 439.16 778.77   Q 437.41 775.43 437.30 771.00   Q 436.82 750.80 437.04 730.59   Q 437.04 730.31 436.77 730.26   Q 436.59 730.23 436.50 730.21"
       id="path190" />
    <path
       stroke="#556b6d"
       vector-effect="non-scaling-stroke"
       d="   M 419.11 868.13   L 515.26 867.55   A 0.67 0.67 0.0 0 0 515.93 866.88   L 515.89 843.89   A 0.88 0.88 0.0 0 0 515.01 843.01   L 416.69 843.01"
       id="path192" />
    <path
       stroke="#897e7f"
       vector-effect="non-scaling-stroke"
       d="   M 416.69 843.01   L 412.51 842.96   A 0.71 0.69 83.0 0 1 411.84 842.42   Q 411.11 839.44 412.31 836.60   Q 412.49 836.17 412.96 836.17   L 434.54 836.45"
       id="path194" />
    <path
       stroke="#556b6d"
       vector-effect="non-scaling-stroke"
       d="   M 434.54 836.45   Q 454.32 835.43 474.25 836.54"
       id="path196" />
    <path
       stroke="#364745"
       vector-effect="non-scaling-stroke"
       d="   M 474.25 836.54   L 513.18 836.65   A 0.67 0.66 76.1 0 0 513.77 835.67   C 509.79 828.31 503.98 825.93 495.40 825.33   Q 484.46 824.56 473.64 825.17"
       id="path198" />
    <path
       stroke="#556b6d"
       vector-effect="non-scaling-stroke"
       d="   M 473.64 825.17   C 466.99 825.55 448.05 827.61 447.99 816.74   Q 447.94 807.05 448.11 795.89   A 0.57 0.57 0.0 0 0 447.48 795.31   L 438.67 796.21"
       id="path200" />
    <path
       stroke="#897e7f"
       vector-effect="non-scaling-stroke"
       d="   M 438.67 796.21   L 429.53 793.47   Q 429.17 793.36 429.16 793.73   L 428.51 820.60   A 1.84 1.84 0.0 0 1 426.63 822.39   C 412.49 822.06 406.09 839.79 406.18 851.23   C 406.23 856.80 406.19 859.92 409.88 863.61   Q 413.81 867.56 419.11 868.13"
       id="path202" />
    <path
       stroke="#bbe9ec"
       vector-effect="non-scaling-stroke"
       d="   M 438.67 796.21   C 438.73 809.19 440.34 819.93 434.80 831.98   A 0.91 0.84 61.2 0 0 434.72 832.30   L 434.54 836.45"
       id="path204" />
    <path
       stroke="#bbe9ec"
       vector-effect="non-scaling-stroke"
       d="   M 416.69 843.01   Q 418.18 843.66 414.37 844.36   Q 413.83 844.46 413.78 845.01   C 413.42 849.38 410.55 856.73 411.35 860.30   Q 412.46 865.31 419.11 868.13"
       id="path206" />
    <path
       stroke="#68b2b2"
       vector-effect="non-scaling-stroke"
       d="   M 473.64 825.17   Q 473.15 830.89 474.25 836.54"
       id="path208" />
    <path
       stroke="#6c797b"
       vector-effect="non-scaling-stroke"
       d="   M 662.77 821.77   Q 657.29 825.86 655.25 825.80   Q 637.79 825.26 620.33 825.27   C 608.11 825.28 601.79 830.17 597.03 841.30   Q 595.99 843.75 596.01 846.90   Q 596.08 857.12 595.69 867.39   Q 595.67 868.00 596.28 868.00   L 599.23 868.00   Q 599.90 868.00 599.89 867.34   Q 599.53 846.95 600.48 840.50   C 601.29 835.03 605.58 836.48 609.31 836.50   C 629.25 836.59 648.92 836.51 669.03 836.80"
       id="path210" />
    <path
       stroke="#364745"
       vector-effect="non-scaling-stroke"
       d="   M 669.03 836.80   Q 678.95 836.53 688.88 837.00   C 691.66 837.13 693.27 838.91 692.26 841.66   Q 692.06 842.21 691.48 842.23   L 657.86 842.98"
       id="path212" />
    <path
       stroke="#556b6d"
       vector-effect="non-scaling-stroke"
       d="   M 657.86 842.98   L 607.85 843.03   A 0.71 0.71 0.0 0 0 607.14 843.75   L 607.52 867.26   Q 607.54 868.02 608.29 868.00   L 640.45 867.49"
       id="path214" />
    <path
       stroke="#364745"
       vector-effect="non-scaling-stroke"
       d="   M 640.45 867.49   Q 667.59 868.08 688.57 867.63   C 704.50 867.28 706.47 846.83 701.59 835.92   Q 696.53 824.60 684.96 821.64   A 1.65 1.64 5.6 0 1 683.73 820.15   L 682.32 794.95   Q 682.29 794.56 681.94 794.73   C 678.10 796.57 674.28 795.94 670.18 795.93"
       id="path216" />
    <path
       stroke="#897e7f"
       vector-effect="non-scaling-stroke"
       d="   M 670.18 795.93   L 664.05 794.61   Q 663.50 794.49 663.52 795.06   Q 663.94 808.79 662.77 821.77"
       id="path218" />
    <path
       stroke="#9cc5c4"
       vector-effect="non-scaling-stroke"
       d="   M 670.18 795.93   C 669.67 804.70 670.46 814.81 668.50 823.16"
       id="path220" />
    <path
       stroke="#d2f7fa"
       vector-effect="non-scaling-stroke"
       d="   M 668.50 823.16   L 662.77 821.77"
       id="path222" />
    <path
       stroke="#68b2b2"
       vector-effect="non-scaling-stroke"
       d="   M 640.45 867.49   C 651.92 866.85 661.85 861.59 659.15 848.30   Q 658.67 845.92 657.86 842.98"
       id="path224" />
    <path
       stroke="#7fc0c0"
       vector-effect="non-scaling-stroke"
       d="   M 669.03 836.80   Q 667.10 829.80 668.50 823.16"
       id="path226" />
    <path
       stroke="#556b6d"
       vector-effect="non-scaling-stroke"
       d="   M 515.5648 356.4760   A 25.54 24.58 -29.7 0 0 481.2016 347.7790   A 25.54 24.58 -29.7 0 0 471.1952 381.7840   A 25.54 24.58 -29.7 0 0 505.5584 390.4810   A 25.54 24.58 -29.7 0 0 515.5648 356.4760"
       id="path228" />
    <path
       stroke="#556b6d"
       vector-effect="non-scaling-stroke"
       d="   M 639.3492 354.1989   A 25.08 24.30 -35.1 0 0 604.8574 348.7390   A 25.08 24.30 -35.1 0 0 598.3108 383.0411   A 25.08 24.30 -35.1 0 0 632.8026 388.5010   A 25.08 24.30 -35.1 0 0 639.3492 354.1989"
       id="path230" />
    <path
       stroke="#907f7f"
       vector-effect="non-scaling-stroke"
       d="   M 495.7135 384.2644   A 14.72 14.22 79.1 0 0 506.8935 367.1211   A 14.72 14.22 79.1 0 0 490.1465 355.3556   A 14.72 14.22 79.1 0 0 478.9665 372.4989   A 14.72 14.22 79.1 0 0 495.7135 384.2644"
       id="path232" />
    <path
       stroke="#907f7f"
       vector-effect="non-scaling-stroke"
       d="   M 619.0391 384.0984   A 14.43 13.43 87.7 0 0 631.8792 369.1410   A 14.43 13.43 87.7 0 0 617.8809 355.2616   A 14.43 13.43 87.7 0 0 605.0408 370.2190   A 14.43 13.43 87.7 0 0 619.0391 384.0984"
       id="path234" />
    <path
       stroke="#556b6d"
       vector-effect="non-scaling-stroke"
       d="   M 474.73 506.13   C 479.65 509.84 483.57 511.01 490.58 513.06   C 520.33 521.77 550.35 526.06 581.35 521.29   Q 602.34 518.06 622.65 511.73   C 624.74 511.08 627.07 510.98 629.28 510.56   Q 629.81 510.46 629.76 509.93   C 629.54 507.69 629.21 502.73 625.76 503.79   C 611.33 508.21 598.59 512.34 584.91 514.54   C 566.86 517.45 548.39 518.54 530.25 515.72   Q 508.93 512.40 485.94 504.56   Q 481.65 503.10 478.60 501.23   A 0.89 0.89 0.0 0 0 477.65 501.25   Q 475.43 502.70 474.47 505.23   A 0.78 0.77 -61.3 0 0 474.73 506.13"
       id="path236" />
    <path
       stroke="#556b6d"
       vector-effect="non-scaling-stroke"
       d="   M 537.97 686.52   C 530.14 684.08 528.99 697.16 538.32 697.20   Q 555.65 697.26 573.00 697.73   Q 577.17 697.85 578.47 697.34   C 582.58 695.73 582.25 687.96 576.24 687.99   Q 561.53 688.06 546.81 687.90   Q 542.26 687.86 537.97 686.52"
       id="path240" />
    <path
       stroke="#7d5e43"
       vector-effect="non-scaling-stroke"
       d="   M 402.18 699.09   C 402.66 704.37 415.88 701.78 411.18 694.03   C 407.23 687.53 401.69 693.79 402.18 699.09"
       id="path250" />
    <path
       stroke="#7c4420"
       vector-effect="non-scaling-stroke"
       d="   M 694.25 693.09   C 694.52 698.06 695.63 701.73 701.74 699.66   A 2.56 2.55 -13.0 0 0 703.46 696.91   C 702.82 691.98 698.91 690.72 694.68 692.41   Q 694.22 692.60 694.25 693.09"
       id="path252" />
  </g>
  <path
     fill="#230000"
     d="   M 465.67 725.58   C 480.80 741.24 487.07 767.95 468.15 783.65   Q 466.42 785.09 465.49 785.85   Q 465.05 786.21 465.05 786.77   L 464.68 808.96   Q 464.67 809.47 465.18 809.47   Q 481.72 809.56 498.18 809.47   C 514.33 809.37 527.43 817.57 531.68 833.06   Q 533.30 838.95 533.16 852.70   Q 532.99 869.58 532.62 886.47   A 0.57 0.57 0.0 0 1 532.04 887.03   Q 480.43 886.71 428.95 886.70   Q 419.92 886.70 415.11 885.35   C 403.02 881.95 394.15 874.10 390.17 862.00   C 383.32 841.21 391.61 819.93 411.73 810.71   A 0.89 0.89 0.0 0 0 412.24 810.03   C 413.58 801.29 414.00 792.73 414.55 783.92   Q 414.59 783.32 415.18 783.21   L 416.77 782.89   A 0.25 0.25 0.0 0 0 416.86 782.43   C 411.25 778.98 407.11 769.22 405.66 763.18   C 402.72 750.94 408.24 736.86 415.49 727.05   Q 415.92 726.48 415.21 726.46   L 375.90 725.63   A 0.57 0.57 0.0 0 0 375.39 725.94   Q 375.18 726.36 374.68 726.23   Q 374.22 726.12 374.22 725.64   C 374.22 662.18 373.78 598.67 374.80 535.22   Q 374.81 534.72 374.39 535.00   Q 358.48 545.88 339.15 543.65   Q 338.66 543.59 338.30 543.93   Q 331.39 550.62 322.22 553.49   Q 321.78 553.63 321.74 554.08   C 320.92 563.27 320.68 570.06 313.79 576.23   Q 313.42 576.56 313.63 577.02   C 324.20 599.36 319.22 624.55 293.50 632.74   C 289.44 634.03 286.43 634.45 282.57 632.09   Q 272.24 625.78 264.82 616.12   Q 264.51 615.72 264.33 616.19   Q 262.68 620.34 260.38 624.10   Q 249.22 642.38 239.74 655.47   Q 238.19 657.60 235.16 659.93   Q 234.76 660.23 234.28 660.11   C 221.35 656.78 209.48 649.01 199.43 640.07   C 186.18 628.27 178.74 611.52 181.35 593.90   Q 182.26 587.76 187.15 576.16   Q 194.49 558.80 202.13 541.59   C 210.01 523.86 226.20 510.29 245.56 509.10   Q 256.24 508.44 269.27 510.24   A 0.65 0.65 0.0 0 0 269.97 509.79   C 275.47 493.03 290.55 483.43 308.16 488.70   Q 308.65 488.85 308.97 488.44   C 324.45 468.55 352.14 464.48 374.83 473.12   Q 375.43 473.35 375.22 472.74   C 374.92 471.87 374.52 471.33 374.49 470.37   Q 374.13 459.96 374.19 430.44   Q 374.30 370.95 374.24 311.47   C 374.23 298.80 375.60 285.06 383.74 274.98   C 390.82 266.21 398.94 259.83 409.73 257.05   Q 414.66 255.79 424.53 255.78   Q 465.47 255.72 506.43 255.76   Q 506.93 255.76 507.05 255.27   C 509.84 243.41 514.45 234.81 528.45 236.96   Q 529.02 237.05 528.92 236.48   C 527.59 228.85 530.49 222.26 534.68 215.89   C 546.21 198.34 565.30 200.31 583.57 204.76   Q 584.08 204.89 584.24 204.39   L 593.10 176.87   Q 593.25 176.40 592.84 176.14   C 580.03 168.03 570.02 154.59 571.99 139.15   C 574.58 118.84 594.76 106.90 614.00 109.55   C 638.88 112.96 653.13 136.14 643.33 159.82   C 641.02 165.41 636.55 169.77 631.77 173.63   Q 622.48 181.16 609.80 180.24   Q 609.16 180.19 608.98 180.80   L 601.76 204.48   Q 601.54 205.19 602.28 205.33   C 618.86 208.42 629.54 213.10 628.20 232.72   Q 628.16 233.25 628.70 233.24   C 637.54 233.05 643.89 241.47 646.25 249.08   Q 647.15 252.02 647.92 255.01   Q 648.05 255.49 648.55 255.50   Q 660.48 255.57 672.37 255.30   Q 684.56 255.04 690.06 256.13   C 715.86 261.24 730.56 282.51 730.52 308.26   Q 730.36 391.35 730.83 474.44   Q 730.83 474.95 731.24 474.64   C 739.96 467.95 753.92 467.42 764.24 468.83   C 779.56 470.93 793.00 477.47 802.53 489.85   Q 802.84 490.25 803.31 490.10   C 809.19 488.19 815.54 487.16 821.53 489.10   C 830.90 492.14 840.61 500.68 842.54 511.00   Q 842.63 511.48 843.12 511.38   C 865.22 506.61 887.65 519.39 897.73 538.38   Q 899.33 541.41 905.42 556.83   Q 911.50 572.26 915.22 582.75   C 923.03 604.78 913.27 629.78 895.21 643.67   Q 880.91 654.67 864.22 660.72   A 1.46 1.46 0.0 0 1 862.49 660.13   C 853.35 645.66 845.39 630.51 836.01 616.36   A 0.33 0.33 0.0 0 0 835.42 616.47   C 834.17 621.79 825.07 628.11 820.65 631.12   C 813.19 636.20 803.30 632.41 797.20 627.03   C 781.21 612.94 783.68 594.80 791.00 577.06   Q 791.19 576.62 790.82 576.31   C 785.11 571.46 782.73 562.52 783.44 555.36   Q 783.49 554.85 783.05 554.59   Q 773.85 549.16 765.65 542.31   Q 765.25 541.97 764.76 542.16   C 763.16 542.80 761.37 543.63 759.63 543.58   C 751.52 543.35 737.01 540.88 730.72 534.66   Q 730.41 534.35 730.41 534.79   L 730.74 725.64   Q 730.74 725.95 730.43 725.94   L 700.04 725.60   Q 699.71 725.60 699.99 725.78   C 706.80 730.41 710.42 741.66 711.13 749.25   Q 712.98 768.92 699.12 782.77   Q 698.76 783.12 698.78 783.62   Q 699.25 803.96 699.94 809.24   C 700.29 811.89 706.75 817.34 708.88 819.39   C 722.27 832.33 725.43 849.67 717.96 866.38   C 711.03 881.89 698.83 886.71 682.37 886.73   C 648.53 886.77 614.61 886.29 580.78 887.12   Q 580.30 887.13 580.30 886.65   Q 580.14 863.72 580.05 840.76   C 579.99 822.88 595.34 809.62 612.56 809.32   C 623.08 809.13 636.05 810.22 648.91 809.69   Q 649.57 809.66 649.57 809.00   L 649.86 786.29   A 0.95 0.94 18.7 0 0 649.47 785.51   C 633.22 773.73 630.71 753.85 640.04 736.87   C 641.68 733.89 644.59 730.31 646.40 726.89   Q 646.93 725.88 645.79 725.87   L 465.75 725.41   Q 465.51 725.41 465.67 725.58   Z   M 604.66 164.18   C 631.92 170.57 638.92 132.14 615.12 126.00   C 607.11 123.65 601.01 125.08 595.01 130.09   C 582.88 140.23 588.69 153.98 599.33 162.17   Q 601.31 163.69 604.66 164.18   Z   M 566.95 233.90   Q 589.28 234.06 611.38 235.88   Q 611.96 235.93 611.92 235.35   Q 611.53 230.53 612.42 225.76   Q 612.52 225.24 612.01 225.09   C 602.32 222.10 592.03 221.09 582.01 219.69   Q 578.12 219.16 574.29 219.15   C 569.89 218.78 555.48 217.41 552.50 220.65   Q 547.71 225.86 544.80 232.34   Q 544.44 233.14 545.31 233.17   L 566.95 233.90   Z   M 528.71 249.22   Q 525.80 250.81 525.72 253.65   Q 525.70 254.19 526.24 254.21   C 548.60 255.14 570.93 256.25 593.29 255.03   Q 612.61 254.30 632.49 256.06   Q 633.03 256.11 632.70 255.67   Q 629.07 250.77 625.19 245.94   C 620.10 239.61 601.07 239.44 592.00 239.34   Q 562.55 239.01 545.25 239.24   C 538.43 239.33 533.69 245.20 528.71 249.22   Z   M 501.44 271.81   L 437.49 271.99   C 424.37 271.75 410.41 270.94 401.16 281.58   C 393.51 290.37 391.66 304.21 391.60 316.25   C 391.17 409.65 391.72 503.04 391.29 596.44   Q 391.11 634.58 391.67 673.76   Q 391.68 674.64 392.56 674.66   L 407.05 675.03   C 417.32 675.05 428.13 674.63 438.41 675.79   Q 440.81 676.06 444.22 675.72   Q 448.75 675.28 456.51 678.00   C 467.88 681.97 474.23 695.73 474.23 707.17   A 0.58 0.58 0.0 0 0 474.80 707.75   Q 544.45 707.76 613.94 707.74   C 616.93 707.73 620.60 707.36 623.95 707.41   Q 624.45 707.41 624.52 706.92   Q 628.17 683.16 650.86 676.62   C 652.93 676.02 654.32 676.79 656.44 676.57   Q 659.97 676.19 660.08 676.19   Q 667.83 675.94 674.52 674.72   L 711.40 673.64   A 0.67 0.66 89.6 0 0 712.05 672.97   L 712.00 452.77   Q 712.00 451.60 710.98 452.19   C 700.10 458.59 686.30 462.67 674.48 467.10   L 657.10 474.13   C 656.74 472.87 655.92 472.44 654.75 472.96   C 653.85 473.36 653.05 473.30 652.19 473.72   Q 642.19 478.68 631.85 482.79   Q 631.39 482.97 631.29 483.45   L 631.01 484.76   C 615.98 492.37 604.10 499.56 585.99 502.48   Q 553.64 507.68 521.29 502.52   Q 509.73 500.68 501.46 495.57   Q 488.55 487.59 478.90 483.65   Q 449.33 471.58 419.93 459.11   C 414.10 456.64 406.44 453.48 403.09 448.61   L 411.49 442.53   Q 443.66 453.59 475.02 466.35   Q 475.52 466.56 475.60 466.02   Q 476.23 461.84 475.29 458.54   Q 476.53 446.76 483.70 438.22   Q 489.35 433.74 496.01 431.75   Q 499.59 430.68 505.61 430.80   C 533.53 431.33 561.59 430.65 603.96 430.77   Q 604.05 430.77 610.51 430.41   C 623.34 429.69 634.59 438.71 637.54 450.97   C 638.52 455.03 638.28 459.94 638.25 464.45   Q 638.24 465.01 638.77 464.80   Q 653.35 458.90 667.65 452.63   Q 671.13 451.11 674.84 450.37   Q 689.18 445.62 703.03 439.29   C 703.89 438.90 704.12 438.35 704.86 437.81   Q 705.54 437.31 705.38 438.15   L 705.24 438.86   A 0.65 0.64 13.9 0 0 705.69 439.60   L 711.65 441.33   Q 712.17 441.48 712.16 440.94   Q 711.89 375.61 712.01 310.27   C 712.02 305.11 711.77 298.56 710.72 294.51   C 707.98 283.91 698.87 275.75 688.74 272.86   Q 683.86 271.47 673.01 271.57   Q 658.77 271.71 643.70 271.77   L 501.44 271.81   Z   M 496.45 457.78   C 496.79 478.63 513.99 488.55 532.50 490.25   Q 548.17 491.69 574.81 490.72   C 589.45 490.19 608.83 483.03 615.32 468.53   C 617.74 463.12 621.07 447.79 610.46 447.95   Q 606.07 448.02 601.67 448.61   Q 601.12 448.68 601.27 449.21   C 605.20 463.48 590.39 474.47 577.75 475.49   Q 564.09 476.60 543.94 476.36   Q 534.86 476.25 527.76 472.50   C 517.95 467.33 515.88 459.71 514.31 449.31   Q 514.24 448.84 513.78 448.70   C 505.74 446.36 496.26 446.42 496.45 457.78   Z   M 526.11 449.25   C 528.33 462.06 533.67 462.32 545.08 462.66   Q 563.04 463.19 580.95 461.97   C 587.45 461.52 589.51 455.03 589.75 449.53   Q 589.77 449.07 589.31 449.07   L 526.46 448.83   A 0.36 0.35 -5.4 0 0 526.11 449.25   Z   M 770.06 501.63   A 0.97 0.97 0.0 0 1 769.53 500.15   Q 774.03 493.68 781.98 493.20   Q 782.32 493.18 782.03 493.01   C 772.77 487.63 760.26 483.27 749.95 485.26   C 744.13 486.38 733.23 491.94 731.78 498.48   Q 730.18 505.70 732.42 512.94   C 736.14 525.00 753.07 528.35 763.67 528.15   Q 764.73 528.13 765.08 527.13   C 769.31 515.26 774.81 505.70 784.97 498.00   Q 785.23 497.80 785.30 497.50   Q 785.39 497.09 785.03 497.31   C 781.70 499.35 773.92 502.76 770.06 501.63   Z   M 336.58 500.60   C 331.23 504.25 327.02 502.16 322.52 498.01   Q 322.44 497.93 322.34 497.97   Q 322.21 498.01 322.08 498.06   Q 321.78 498.16 322.01 498.37   C 332.18 507.84 336.15 517.04 341.33 528.56   A 1.06 1.04 -5.0 0 0 342.05 529.15   C 344.08 529.60 346.48 528.88 347.75 528.82   C 362.62 528.16 379.49 521.38 377.23 503.01   Q 376.60 497.88 372.51 494.02   C 358.69 480.98 343.49 484.13 327.70 491.52   A 0.36 0.36 0.0 0 0 327.80 492.21   C 331.66 492.78 334.95 496.77 336.75 499.89   Q 336.99 500.32 336.58 500.60   Z   M 303.41 514.48   C 312.67 520.41 320.40 525.31 323.84 534.39   Q 324.08 535.01 324.52 534.52   C 327.24 531.51 330.20 528.07 334.16 526.80   Q 334.73 526.62 334.48 526.08   C 329.35 514.71 321.34 505.35 309.10 501.30   C 299.93 498.53 292.97 502.70 286.31 508.51   Q 285.84 508.92 286.44 509.11   L 303.41 514.48   Z   M 772.41 528.88   L 777.33 530.34   Q 777.88 530.51 777.92 529.93   C 778.64 519.45 784.87 510.52 791.68 503.02   A 0.39 0.39 0.0 0 0 791.21 502.42   C 780.61 508.02 775.54 517.21 772.04 528.17   Q 771.87 528.72 772.41 528.88   Z   M 789.40 543.49   A 0.57 0.57 0.0 0 0 790.34 543.34   C 796.90 528.36 809.68 517.84 826.29 516.20   A 0.38 0.38 0.0 0 0 826.59 515.63   C 821.03 505.98 812.95 499.88 801.73 506.29   C 789.98 513.01 778.35 531.15 789.40 543.49   Z   M 314.15 528.89   Q 305.46 519.75 292.83 517.64   Q 289.71 517.12 292.26 518.99   C 302.94 526.83 311.80 534.06 317.40 546.33   A 0.47 0.47 0.0 0 0 318.30 546.19   Q 319.09 539.23 316.52 532.62   Q 315.70 530.52 314.15 528.89   Z   M 220.79 555.26   Q 233.68 549.19 248.04 547.50   C 248.15 544.05 248.73 540.17 252.50 540.26   C 257.46 540.38 269.76 540.36 271.97 543.19   C 272.24 546.92 272.62 549.88 275.82 552.22   Q 285.10 559.02 295.96 563.51   L 300.26 566.32   Q 300.75 566.64 301.17 566.23   C 306.37 561.10 308.72 554.77 305.22 547.79   C 298.53 534.42 280.87 525.40 266.27 525.30   C 236.98 519.80 219.40 534.74 211.11 561.49   A 0.26 0.25 76.6 0 0 211.53 561.75   Q 215.58 557.86 220.79 555.26   Z   M 807.74 566.19   Q 808.81 565.93 809.69 565.17   Q 816.74 559.10 825.56 555.51   A 0.75 0.74 -13.7 0 0 826.02 554.77   L 825.35 545.50   C 832.98 541.25 843.39 538.98 852.20 541.29   C 855.95 542.27 857.25 544.76 856.67 548.45   Q 856.58 549.02 857.16 549.10   C 869.29 550.69 882.09 555.15 891.36 563.27   Q 892.10 563.91 891.72 563.01   C 891.36 562.17 890.58 561.34 890.30 560.53   C 878.49 525.90 852.20 519.68 819.22 530.74   Q 809.35 534.06 803.45 542.12   C 796.96 551.00 796.07 560.99 807.25 566.60   Q 807.53 566.74 807.66 566.47   Q 807.73 566.33 807.74 566.19   Z   M 253.50 561.74   Q 228.27 561.14 209.18 578.48   Q 204.65 582.99 201.58 589.10   Q 198.56 595.13 198.33 601.50   C 197.54 623.56 215.01 635.38 232.04 645.10   Q 232.48 645.36 232.51 644.85   Q 232.53 644.53 232.37 644.18   C 233.05 642.96 234.33 642.24 235.08 641.15   Q 248.54 621.78 261.92 602.00   A 0.63 0.62 -49.2 0 0 261.87 601.23   L 245.51 582.63   A 1.46 1.46 0.0 0 0 243.76 582.28   Q 237.87 585.17 232.70 589.69   Q 223.76 597.50 214.55 613.47   C 209.92 604.27 213.86 594.85 220.62 588.41   C 227.86 580.24 242.51 571.04 254.18 574.31   C 260.11 577.98 264.49 584.56 269.19 589.78   C 275.67 596.96 274.97 610.89 282.93 615.56   Q 290.13 619.78 295.73 616.18   C 302.38 611.92 303.31 601.02 302.58 593.66   Q 300.87 576.40 288.42 565.39   C 287.49 564.57 285.71 563.36 284.76 563.21   Q 269.21 560.78 253.50 561.74   Z   M 801.54 608.38   Q 802.99 613.17 806.21 616.06   C 811.30 620.63 815.48 618.40 819.88 614.78   C 826.13 609.63 827.51 601.79 831.39 595.63   Q 834.49 590.70 838.90 585.88   Q 842.77 581.88 847.18 577.18   C 853.67 570.26 882.11 592.34 885.13 599.16   C 887.06 603.52 885.51 609.81 883.58 613.68   C 879.26 603.13 869.15 590.14 859.21 585.50   Q 858.48 585.16 857.98 585.79   L 844.91 602.11   A 0.61 0.60 49.8 0 0 844.86 602.77   L 867.47 643.72   Q 867.61 644.39 867.99 644.86   Q 868.31 645.25 868.74 644.98   Q 880.45 637.60 887.33 630.85   C 896.91 621.45 902.99 605.38 899.49 591.96   C 896.38 580.04 883.12 571.13 872.05 566.55   C 861.11 562.03 845.57 561.18 834.31 562.12   C 823.89 562.99 816.37 564.62 810.69 572.69   Q 799.16 589.06 801.54 608.38   Z   M 466.61 706.58   C 468.59 695.44 458.32 685.31 449.20 681.13   C 442.35 678.00 433.48 678.28 425.95 679.05   A 0.83 0.83 0.0 0 0 425.26 680.17   C 428.52 688.71 428.23 698.65 428.26 707.74   Q 428.27 708.19 428.71 708.19   L 465.04 707.91   Q 466.38 707.90 466.61 706.58   Z   M 631.98 707.67   L 680.39 708.00   Q 680.81 708.00 680.83 707.59   L 682.16 687.91   A 2.22 2.21 -70.4 0 0 681.23 685.94   C 665.46 674.70 646.69 676.67 635.73 693.25   Q 631.62 699.48 631.26 706.91   A 0.73 0.73 0.0 0 0 631.98 707.67   Z   M 419.72 708.96   L 419.44 685.98   A 0.25 0.25 0.0 0 0 419.19 685.73   L 392.58 686.06   A 0.98 0.20 -0.7 0 0 391.60 686.27   L 391.88 709.35   A 0.98 0.20 -0.7 0 0 392.86 709.54   L 419.47 709.21   A 0.25 0.25 0.0 0 0 419.72 708.96   Z   M 689.14 709.79   A 0.35 0.35 0.0 0 0 689.49 710.13   L 713.04 709.69   A 0.35 0.35 0.0 0 0 713.38 709.33   L 712.91 687.60   A 0.35 0.35 0.0 0 0 712.58 687.26   L 689.31 685.66   A 0.35 0.35 0.0 0 0 688.93 686.01   L 689.14 709.79   Z   M 692.10 757.08   C 692.91 744.35 689.83 735.01 679.56 727.09   A 0.60 0.60 0.0 0 0 678.60 727.54   Q 677.65 752.88 678.30 778.22   A 0.62 0.62 0.0 0 0 679.24 778.74   C 687.33 773.99 691.48 766.62 692.10 757.08   Z   M 654.78 766.60   C 658.09 774.12 665.98 779.32 673.90 780.40   Q 674.35 780.46 674.35 780.00   L 674.12 727.99   A 0.70 0.69 -15.8 0 0 673.06 727.40   C 669.30 729.73 665.03 732.11 662.12 735.22   C 654.98 742.85 650.33 756.48 654.78 766.60   Z   M 436.50 730.21   C 430.01 734.79 426.29 742.50 424.23 750.26   C 421.06 762.22 428.34 773.61 439.16 778.77   Q 458.05 779.89 461.44 763.03   C 464.79 746.37 451.81 734.77 437.49 729.77   Q 437.04 729.61 436.50 730.21   Z   M 419.11 868.13   L 515.26 867.55   A 0.67 0.67 0.0 0 0 515.93 866.88   L 515.89 843.89   A 0.88 0.88 0.0 0 0 515.01 843.01   L 416.69 843.01   L 412.51 842.96   A 0.71 0.69 83.0 0 1 411.84 842.42   Q 411.11 839.44 412.31 836.60   Q 412.49 836.17 412.96 836.17   L 434.54 836.45   Q 454.32 835.43 474.25 836.54   L 513.18 836.65   A 0.67 0.66 76.1 0 0 513.77 835.67   C 509.79 828.31 503.98 825.93 495.40 825.33   Q 484.46 824.56 473.64 825.17   C 466.99 825.55 448.05 827.61 447.99 816.74   Q 447.94 807.05 448.11 795.89   A 0.57 0.57 0.0 0 0 447.48 795.31   L 438.67 796.21   L 429.53 793.47   Q 429.17 793.36 429.16 793.73   L 428.51 820.60   A 1.84 1.84 0.0 0 1 426.63 822.39   C 412.49 822.06 406.09 839.79 406.18 851.23   C 406.23 856.80 406.19 859.92 409.88 863.61   Q 413.81 867.56 419.11 868.13   Z   M 662.77 821.77   Q 657.29 825.86 655.25 825.80   Q 637.79 825.26 620.33 825.27   C 608.11 825.28 601.79 830.17 597.03 841.30   Q 595.99 843.75 596.01 846.90   Q 596.08 857.12 595.69 867.39   Q 595.67 868.00 596.28 868.00   L 599.23 868.00   Q 599.90 868.00 599.89 867.34   Q 599.53 846.95 600.48 840.50   C 601.29 835.03 605.58 836.48 609.31 836.50   C 629.25 836.59 648.92 836.51 669.03 836.80   Q 678.95 836.53 688.88 837.00   C 691.66 837.13 693.27 838.91 692.26 841.66   Q 692.06 842.21 691.48 842.23   L 657.86 842.98   L 607.85 843.03   A 0.71 0.71 0.0 0 0 607.14 843.75   L 607.52 867.26   Q 607.54 868.02 608.29 868.00   L 640.45 867.49   Q 667.59 868.08 688.57 867.63   C 704.50 867.28 706.47 846.83 701.59 835.92   Q 696.53 824.60 684.96 821.64   A 1.65 1.64 5.6 0 1 683.73 820.15   L 682.32 794.95   Q 682.29 794.56 681.94 794.73   C 678.10 796.57 674.28 795.94 670.18 795.93   L 664.05 794.61   Q 663.50 794.49 663.52 795.06   Q 663.94 808.79 662.77 821.77   Z"
     id="path258" />
  <path
     fill="#fcfefd"
     d="   M 615.12 126.00   C 606.40 128.68 601.36 131.55 597.19 138.95   C 593.65 145.24 596.56 154.21 600.34 159.72   C 601.61 161.57 604.22 162.27 604.66 164.18   Q 601.31 163.69 599.33 162.17   C 588.69 153.98 582.88 140.23 595.01 130.09   C 601.01 125.08 607.11 123.65 615.12 126.00   Z"
     id="path260" />
  <path
     fill="#ea843d"
     d="   M 615.12 126.00   C 638.92 132.14 631.92 170.57 604.66 164.18   C 604.22 162.27 601.61 161.57 600.34 159.72   C 596.56 154.21 593.65 145.24 597.19 138.95   C 601.36 131.55 606.40 128.68 615.12 126.00   Z"
     id="path262" />
  <path
     fill="#effcfe"
     d="   M 574.29 219.15   L 573.48 220.26   Q 570.13 224.88 568.22 230.21   L 566.95 233.90   L 545.31 233.17   Q 544.44 233.14 544.80 232.34   Q 547.71 225.86 552.50 220.65   C 555.48 217.41 569.89 218.78 574.29 219.15   Z"
     id="path264" />
  <path
     fill="#ea843d"
     d="   M 566.95 233.90   L 568.22 230.21   Q 568.94 230.26 569.41 229.42   C 570.72 227.07 573.59 222.87 573.48 220.26   L 574.29 219.15   Q 578.12 219.16 582.01 219.69   C 592.03 221.09 602.32 222.10 612.01 225.09   Q 612.52 225.24 612.42 225.76   Q 611.53 230.53 611.92 235.35   Q 611.96 235.93 611.38 235.88   Q 589.28 234.06 566.95 233.90   Z"
     id="path266" />
  <path
     fill="#6b5f32"
     d="   M 573.48 220.26   C 573.59 222.87 570.72 227.07 569.41 229.42   Q 568.94 230.26 568.22 230.21   Q 570.13 224.88 573.48 220.26   Z"
     id="path268" />
  <path
     fill="#ea843d"
     d="   M 593.29 255.03   Q 588.58 252.22 585.75 252.22   Q 565.54 252.21 545.53 250.26   Q 539.17 248.51 532.69 249.31   L 528.71 249.22   C 533.69 245.20 538.43 239.33 545.25 239.24   Q 562.55 239.01 592.00 239.34   C 601.07 239.44 620.10 239.61 625.19 245.94   Q 629.07 250.77 632.70 255.67   Q 633.03 256.11 632.49 256.06   Q 612.61 254.30 593.29 255.03   Z"
     id="path270" />
  <path
     fill="#edb984"
     d="   M 545.53 250.26   Q 538.90 250.66 532.69 249.31   Q 539.17 248.51 545.53 250.26   Z"
     id="path272" />
  <path
     fill="#effcfe"
     d="   M 528.71 249.22   L 532.69 249.31   Q 538.90 250.66 545.53 250.26   Q 565.54 252.21 585.75 252.22   Q 588.58 252.22 593.29 255.03   C 570.93 256.25 548.60 255.14 526.24 254.21   Q 525.70 254.19 525.72 253.65   Q 525.80 250.81 528.71 249.22   Z"
     id="path274" />
  <path
     fill="#87d6da"
     d="   M 643.70 271.77   C 666.60 282.51 673.22 299.16 673.74 323.01   Q 675.10 385.88 673.96 448.76   Q 673.95 449.21 674.30 449.48   Q 674.76 449.83 674.84 450.37   Q 671.13 451.11 667.65 452.63   Q 653.35 458.90 638.77 464.80   Q 638.24 465.01 638.25 464.45   C 638.28 459.94 638.52 455.03 637.54 450.97   C 634.59 438.71 623.34 429.69 610.51 430.41   Q 604.05 430.77 603.96 430.77   C 561.59 430.65 533.53 431.33 505.61 430.80   Q 499.59 430.68 496.01 431.75   Q 489.35 433.74 483.70 438.22   Q 473.59 445.19 475.29 458.54   Q 476.23 461.84 475.60 466.02   Q 475.52 466.56 475.02 466.35   Q 443.66 453.59 411.49 442.53   Q 410.60 441.68 408.06 442.06   Q 407.85 442.09 407.66 441.98   L 407.24 441.73   A 0.12 0.12 0.0 0 1 407.28 441.51   L 407.77 441.40   L 410.21 441.75   A 1.24 1.24 0.0 0 0 411.63 440.51   Q 411.14 381.18 411.48 323.02   C 411.56 309.35 414.15 299.91 428.27 296.39   Q 431.37 295.62 435.78 295.85   C 458.79 297.09 482.04 296.15 505.10 296.26   C 514.63 296.31 512.30 284.49 503.53 287.18   Q 503.71 279.22 501.44 271.81   L 643.70 271.77   Z   M 515.5648 356.4760   A 25.54 24.58 -29.7 0 0 481.2016 347.7790   A 25.54 24.58 -29.7 0 0 471.1952 381.7840   A 25.54 24.58 -29.7 0 0 505.5584 390.4810   A 25.54 24.58 -29.7 0 0 515.5648 356.4760   Z   M 639.3492 354.1989   A 25.08 24.30 -35.1 0 0 604.8574 348.7390   A 25.08 24.30 -35.1 0 0 598.3108 383.0411   A 25.08 24.30 -35.1 0 0 632.8026 388.5010   A 25.08 24.30 -35.1 0 0 639.3492 354.1989   Z"
     id="path276" />
  <path
     fill="#498e89"
     d="   M 674.84 450.37   Q 674.76 449.83 674.30 449.48   Q 673.95 449.21 673.96 448.76   Q 675.10 385.88 673.74 323.01   C 673.22 299.16 666.60 282.51 643.70 271.77   Q 658.77 271.71 673.01 271.57   Q 683.86 271.47 688.74 272.86   C 698.87 275.75 707.98 283.91 710.72 294.51   C 711.77 298.56 712.02 305.11 712.01 310.27   Q 711.89 375.61 712.16 440.94   Q 712.17 441.48 711.65 441.33   L 705.69 439.60   A 0.65 0.64 13.9 0 1 705.24 438.86   L 705.38 438.15   Q 705.54 437.31 704.86 437.81   C 704.12 438.35 703.89 438.90 703.03 439.29   Q 689.18 445.62 674.84 450.37   Z"
     id="path278" />
  <path
     fill="#b4f2f6"
     d="   M 501.44 271.81   Q 503.71 279.22 503.53 287.18   Q 504.05 287.56 503.16 288.12   Q 502.79 288.34 502.29 288.35   Q 470.03 288.93 437.76 288.51   Q 427.78 288.38 423.38 289.72   Q 415.81 292.04 410.95 298.03   Q 406.27 294.17 400.03 291.66   Q 399.61 291.49 399.14 291.48   Q 397.62 291.46 397.91 289.70   C 398.57 285.57 407.20 278.02 411.20 276.56   C 419.48 273.53 427.97 273.20 436.64 273.23   A 1.28 1.28 0.0 0 0 437.75 272.59   Q 437.82 272.47 437.49 271.99   L 501.44 271.81   Z"
     id="path280" />
  <path
     fill="#effcfe"
     d="   M 437.49 271.99   Q 437.82 272.47 437.75 272.59   A 1.28 1.28 0.0 0 1 436.64 273.23   C 427.97 273.20 419.48 273.53 411.20 276.56   C 407.20 278.02 398.57 285.57 397.91 289.70   Q 397.62 291.46 399.14 291.48   Q 399.61 291.49 400.03 291.66   Q 406.27 294.17 410.95 298.03   C 404.43 305.81 403.77 311.41 403.75 320.25   Q 403.63 377.88 404.24 435.50   Q 404.28 439.35 407.77 441.40   L 407.28 441.51   A 0.12 0.12 0.0 0 0 407.24 441.73   L 407.66 441.98   Q 407.85 442.09 408.06 442.06   Q 410.60 441.68 411.49 442.53   L 403.09 448.61   L 401.19 448.71   Q 399.23 448.81 399.96 450.63   Q 403.77 460.12 404.50 469.00   Q 403.02 488.04 404.48 507.06   L 404.43 547.19   Q 403.82 563.15 404.75 579.49   Q 403.81 580.87 403.80 582.25   Q 403.61 610.04 404.07 651.75   Q 404.11 655.71 408.32 656.70   Q 409.75 663.35 407.31 671.23   Q 407.16 671.71 406.78 672.03   Q 405.38 673.21 407.05 675.03   L 392.56 674.66   Q 391.68 674.64 391.67 673.76   Q 391.11 634.58 391.29 596.44   C 391.72 503.04 391.17 409.65 391.60 316.25   C 391.66 304.21 393.51 290.37 401.16 281.58   C 410.41 270.94 424.37 271.75 437.49 271.99   Z"
     id="path282" />
  <path
     fill="#0d0302"
     d="   M 407.77 441.40   Q 404.28 439.35 404.24 435.50   Q 403.63 377.88 403.75 320.25   C 403.77 311.41 404.43 305.81 410.95 298.03   Q 415.81 292.04 423.38 289.72   Q 427.78 288.38 437.76 288.51   Q 470.03 288.93 502.29 288.35   Q 502.79 288.34 503.16 288.12   Q 504.05 287.56 503.53 287.18   C 512.30 284.49 514.63 296.31 505.10 296.26   C 482.04 296.15 458.79 297.09 435.78 295.85   Q 431.37 295.62 428.27 296.39   C 414.15 299.91 411.56 309.35 411.48 323.02   Q 411.14 381.18 411.63 440.51   A 1.24 1.24 0.0 0 1 410.21 441.75   L 407.77 441.40   Z"
     id="path284" />
  <path
     fill="#230000"
     d="   M 515.5648 356.4760   A 25.54 24.58 -29.7 0 1 505.5584 390.4810   A 25.54 24.58 -29.7 0 1 471.1952 381.7840   A 25.54 24.58 -29.7 0 1 481.2016 347.7790   A 25.54 24.58 -29.7 0 1 515.5648 356.4760   Z   M 495.7135 384.2644   A 14.72 14.22 79.1 0 0 506.8935 367.1211   A 14.72 14.22 79.1 0 0 490.1465 355.3556   A 14.72 14.22 79.1 0 0 478.9665 372.4989   A 14.72 14.22 79.1 0 0 495.7135 384.2644   Z"
     id="path286" />
  <path
     fill="#230000"
     d="   M 639.3492 354.1989   A 25.08 24.30 -35.1 0 1 632.8026 388.5010   A 25.08 24.30 -35.1 0 1 598.3108 383.0411   A 25.08 24.30 -35.1 0 1 604.8574 348.7390   A 25.08 24.30 -35.1 0 1 639.3492 354.1989   Z   M 619.0391 384.0984   A 14.43 13.43 87.7 0 0 631.8792 369.1410   A 14.43 13.43 87.7 0 0 617.8809 355.2616   A 14.43 13.43 87.7 0 0 605.0408 370.2190   A 14.43 13.43 87.7 0 0 619.0391 384.0984   Z"
     id="path288" />
  <ellipse
     fill="#fcfefd"
     cx="0.00"
     cy="0.00"
     transform="translate(492.93,369.81) rotate(79.1)"
     rx="14.72"
     ry="14.22"
     id="ellipse290" />
  <ellipse
     fill="#fcfefd"
     cx="0.00"
     cy="0.00"
     transform="translate(618.46,369.68) rotate(87.7)"
     rx="14.43"
     ry="13.43"
     id="ellipse292" />
  <path
     fill="#b4f2f6"
     d="   M 483.70 438.22   Q 476.53 446.76 475.29 458.54   Q 473.59 445.19 483.70 438.22   Z"
     id="path294" />
  <path
     fill="#d62b32"
     d="   M 532.50 490.25   C 513.99 488.55 496.79 478.63 496.45 457.78   C 496.26 446.42 505.74 446.36 513.78 448.70   Q 514.24 448.84 514.31 449.31   C 515.88 459.71 517.95 467.33 527.76 472.50   Q 534.86 476.25 543.94 476.36   Q 564.09 476.60 577.75 475.49   C 590.39 474.47 605.20 463.48 601.27 449.21   Q 601.12 448.68 601.67 448.61   Q 606.07 448.02 610.46 447.95   C 621.07 447.79 617.74 463.12 615.32 468.53   C 608.83 483.03 589.45 490.19 574.81 490.72   Q 548.17 491.69 532.50 490.25   Z"
     id="path296" />
  <path
     fill="#87d6da"
     d="m 403.08261,448.61745 c 3.35,4.87 11.01,8.03 16.84,10.5 q 29.4,12.47 58.97,24.54 9.65,3.94 22.56,11.92 8.27,5.11 19.83,6.95 32.35,5.16 64.7,-0.04 c 18.11,-2.92 29.99,-10.11 45.02,-17.72 l 26.09,-10.63 17.38,-7.03 0.04,207.62 q -6.69,1.22 -14.44,1.47 -0.11,0 -3.64,0.38 c -2.12,0.22 -3.51,-0.55 -5.58,0.05 q -22.69,6.54 -26.34,30.3 -0.07,0.49 -0.57,0.49 c -3.35,-0.05 -7.02,0.32 -10.01,0.33 q -69.49,0.02 -139.14,0.01 a 0.58,0.58 0 0 1 -0.57,-0.58 c 0,-11.44 -6.35,-25.2 -17.72,-29.17 q -7.76,-2.72 -12.29,-2.28 -3.41,0.34 -5.81,0.07 c -10.28,-1.16 -21.09,-0.74 -31.36,-0.76 q -1.67,-1.82 -0.27,-3 0.38,-0.32 0.53,-0.8 2.44,-7.88 1.01,-14.53 3.43,-2.55 3.25,-8.02 c -0.68,-20.32 -0.06,-40.96 -0.08,-61.31 0,-4.86 -1.31,-8.24 -6.74,-7.88 q -0.93,-16.34 -0.32,-32.3 1.53,-2.46 1.39,-6.94 -0.41,-13.62 0.34,-30.2 c 0.05,-1.15 0.65,-1.97 1.35,-2.78 2.35,0.2 3.52,-1.01 3.63,-3.36 q 0.57,-12.02 0.26,-26.89 -0.15,-6.86 -6.9,-8.02 -0.73,-8.88 -4.54,-18.37 -0.73,-1.82 1.23,-1.92 z m 71.64,57.52 c 4.92,3.71 8.84,4.88 15.85,6.93 29.75,8.71 59.77,13 90.77,8.23 q 20.99,-3.23 41.3,-9.56 c 2.09,-0.65 4.42,-0.75 6.63,-1.17 q 0.53,-0.1 0.48,-0.63 c -0.22,-2.24 -0.55,-7.2 -4,-6.14 -14.43,4.42 -27.17,8.55 -40.85,10.75 -18.05,2.91 -36.52,4 -54.66,1.18 q -21.32,-3.32 -44.31,-11.16 -4.29,-1.46 -7.34,-3.33 a 0.89,0.89 0 0 0 -0.95,0.02 q -2.22,1.45 -3.18,3.98 a 0.77,0.78 28.7 0 0 0.26,0.9 z m 26.58,147.85 c 5.76,4.41 13.71,4.24 21.69,4.28 q 36.22,0.17 72.44,-0.21 8.18,-0.08 12.44,-1.51 c 8.98,-3 18.13,-9.57 18.3,-20.1 q 0.42,-24.54 0.58,-49.11 c 0.1,-14.62 -12.46,-27.39 -27.26,-27.38 q -37.37,0.02 -74.72,0.07 c -10.6,0.02 -16.84,1.15 -24.18,7.84 q -9.88,8.98 -9.96,22.14 c -0.07,14.07 0.54,28.21 0.11,42.29 q -0.4,13.3 10.56,21.69 z m 36.66,32.54 c -7.83,-2.44 -8.98,10.64 0.35,10.68 q 17.33,0.06 34.68,0.53 4.17,0.12 5.47,-0.39 c 4.11,-1.61 3.78,-9.38 -2.23,-9.35 q -14.71,0.07 -29.43,-0.09 -4.55,-0.04 -8.84,-1.38 z"
     id="path298" />
  <path
     fill="#fcfefd"
     d="   M 545.08 462.66   C 533.67 462.32 528.33 462.06 526.11 449.25   A 0.36 0.35 -5.4 0 1 526.46 448.83   L 589.31 449.07   Q 589.77 449.07 589.75 449.53   C 589.51 455.03 587.45 461.52 580.95 461.97   Q 563.04 463.19 545.08 462.66   Z"
     id="path300" />
  <path
     fill="#498e89"
     d="   M 674.52 674.72   L 674.48 467.10   C 686.30 462.67 700.10 458.59 710.98 452.19   Q 712.00 451.60 712.00 452.77   L 712.05 672.97   A 0.67 0.66 89.6 0 1 711.40 673.64   L 674.52 674.72   Z"
     id="path302" />
  <path
     fill="#0d0302"
     d="   M 404.50 469.00   Q 411.25 470.16 411.40 477.02   Q 411.71 491.89 411.14 503.91   C 411.03 506.26 409.86 507.47 407.51 507.27   L 404.48 507.06   Q 403.02 488.04 404.50 469.00   Z"
     id="path304" />
  <path
     fill="#0d0302"
     d="   M 657.10 474.13   L 631.01 484.76   L 631.29 483.45   Q 631.39 482.97 631.85 482.79   Q 642.19 478.68 652.19 473.72   C 653.05 473.30 653.85 473.36 654.75 472.96   C 655.92 472.44 656.74 472.87 657.10 474.13   Z"
     id="path306" />
  <path
     fill="#ea843d"
     d="   M 770.06 501.63   C 773.92 502.76 781.70 499.35 785.03 497.31   Q 785.39 497.09 785.30 497.50   Q 785.23 497.80 784.97 498.00   C 774.81 505.70 769.31 515.26 765.08 527.13   Q 764.73 528.13 763.67 528.15   C 753.07 528.35 736.14 525.00 732.42 512.94   Q 730.18 505.70 731.78 498.48   C 733.23 491.94 744.13 486.38 749.95 485.26   C 760.26 483.27 772.77 487.63 782.03 493.01   Q 782.32 493.18 781.98 493.20   Q 774.03 493.68 769.53 500.15   A 0.97 0.97 0.0 0 0 770.06 501.63   Z"
     id="path308" />
  <path
     fill="#ea843d"
     d="   M 336.75 499.89   C 334.95 496.77 331.66 492.78 327.80 492.21   A 0.36 0.36 0.0 0 1 327.70 491.52   C 343.49 484.13 358.69 480.98 372.51 494.02   Q 376.60 497.88 377.23 503.01   C 379.49 521.38 362.62 528.16 347.75 528.82   C 346.48 528.88 344.08 529.60 342.05 529.15   A 1.06 1.04 -5.0 0 1 341.33 528.56   C 336.15 517.04 332.18 507.84 322.01 498.37   Q 321.78 498.16 322.08 498.06   Q 322.21 498.01 322.34 497.97   Q 322.44 497.93 322.52 498.01   C 327.02 502.16 331.23 504.25 336.58 500.60   Q 336.99 500.32 336.75 499.89   Z"
     id="path310" />
  <path
     fill="#effcfe"
     d="   M 309.10 501.30   Q 307.56 506.73 306.64 512.12   C 306.31 514.10 305.24 514.52 303.41 514.48   L 286.44 509.11   Q 285.84 508.92 286.31 508.51   C 292.97 502.70 299.93 498.53 309.10 501.30   Z"
     id="path312" />
  <path
     fill="#230000"
     d="   M 474.73 506.13   A 0.78 0.77 -61.3 0 1 474.47 505.23   Q 475.43 502.70 477.65 501.25   A 0.89 0.89 0.0 0 1 478.60 501.23   Q 481.65 503.10 485.94 504.56   Q 508.93 512.40 530.25 515.72   C 548.39 518.54 566.86 517.45 584.91 514.54   C 598.59 512.34 611.33 508.21 625.76 503.79   C 629.21 502.73 629.54 507.69 629.76 509.93   Q 629.81 510.46 629.28 510.56   C 627.07 510.98 624.74 511.08 622.65 511.73   Q 602.34 518.06 581.35 521.29   C 550.35 526.06 520.33 521.77 490.58 513.06   C 483.57 511.01 479.65 509.84 474.73 506.13   Z"
     id="path314" />
  <path
     fill="#edb984"
     d="   M 309.10 501.30   C 321.34 505.35 329.35 514.71 334.48 526.08   Q 334.73 526.62 334.16 526.80   C 330.20 528.07 327.24 531.51 324.52 534.52   Q 324.08 535.01 323.84 534.39   C 320.40 525.31 312.67 520.41 303.41 514.48   C 305.24 514.52 306.31 514.10 306.64 512.12   Q 307.56 506.73 309.10 501.30   Z"
     id="path316" />
  <path
     fill="#ea843d"
     d="   M 772.41 528.88   Q 771.87 528.72 772.04 528.17   C 775.54 517.21 780.61 508.02 791.21 502.42   A 0.39 0.39 0.0 0 1 791.68 503.02   C 784.87 510.52 778.64 519.45 777.92 529.93   Q 777.88 530.51 777.33 530.34   L 772.41 528.88   Z"
     id="path318" />
  <path
     fill="#ea843d"
     d="   M 789.40 543.49   C 778.35 531.15 789.98 513.01 801.73 506.29   C 812.95 499.88 821.03 505.98 826.59 515.63   A 0.38 0.38 0.0 0 1 826.29 516.20   C 809.68 517.84 796.90 528.36 790.34 543.34   A 0.57 0.57 0.0 0 1 789.40 543.49   Z"
     id="path320" />
  <path
     fill="#498e89"
     d="   M 404.48 507.06   L 407.51 507.27   C 406.81 508.08 406.21 508.90 406.16 510.05   Q 405.41 526.63 405.82 540.25   Q 405.96 544.73 404.43 547.19   L 404.48 507.06   Z"
     id="path322" />
  <path
     fill="#ea843d"
     d="   M 314.15 528.89   Q 315.70 530.52 316.52 532.62   Q 319.09 539.23 318.30 546.19   A 0.47 0.47 0.0 0 1 317.40 546.33   C 311.80 534.06 302.94 526.83 292.26 518.99   Q 289.71 517.12 292.83 517.64   Q 305.46 519.75 314.15 528.89   Z"
     id="path324" />
  <path
     fill="#effcfe"
     d="   M 266.27 525.30   Q 257.68 528.36 254.70 530.68   Q 243.07 539.74 229.38 545.12   Q 224.17 549.26 220.31 553.56   Q 219.70 554.25 220.79 555.26   Q 215.58 557.86 211.53 561.75   A 0.26 0.25 76.6 0 1 211.11 561.49   C 219.40 534.74 236.98 519.80 266.27 525.30   Z"
     id="path326" />
  <path
     fill="#ea843d"
     d="   M 266.27 525.30   C 280.87 525.40 298.53 534.42 305.22 547.79   C 308.72 554.77 306.37 561.10 301.17 566.23   Q 300.75 566.64 300.26 566.32   L 295.96 563.51   C 291.68 551.45 284.17 546.48 271.97 543.19   C 269.76 540.36 257.46 540.38 252.50 540.26   C 248.73 540.17 248.15 544.05 248.04 547.50   C 247.02 540.40 231.44 552.38 229.38 545.12   Q 243.07 539.74 254.70 530.68   Q 257.68 528.36 266.27 525.30   Z"
     id="path328" />
  <path
     fill="#ea843d"
     d="   M 825.35 545.50   C 814.30 546.17 807.29 555.33 807.74 566.19   Q 807.73 566.33 807.66 566.47   Q 807.53 566.74 807.25 566.60   C 796.07 560.99 796.96 551.00 803.45 542.12   Q 809.35 534.06 819.22 530.74   C 852.20 519.68 878.49 525.90 890.30 560.53   C 890.58 561.34 891.36 562.17 891.72 563.01   Q 892.10 563.91 891.36 563.27   C 882.09 555.15 869.29 550.69 857.16 549.10   Q 856.58 549.02 856.67 548.45   C 857.25 544.76 855.95 542.27 852.20 541.29   C 843.39 538.98 832.98 541.25 825.35 545.50   Z"
     id="path330" />
  <path
     fill="#6b5f32"
     d="   M 295.96 563.51   Q 285.10 559.02 275.82 552.22   C 272.62 549.88 272.24 546.92 271.97 543.19   C 284.17 546.48 291.68 551.45 295.96 563.51   Z"
     id="path332" />
  <path
     fill="#edb984"
     d="   M 229.38 545.12   C 231.44 552.38 247.02 540.40 248.04 547.50   Q 233.68 549.19 220.79 555.26   Q 219.70 554.25 220.31 553.56   Q 224.17 549.26 229.38 545.12   Z"
     id="path334" />
  <path
     fill="#6b5f32"
     d="   M 825.35 545.50   L 826.02 554.77   A 0.75 0.74 -13.7 0 1 825.56 555.51   Q 816.74 559.10 809.69 565.17   Q 808.81 565.93 807.74 566.19   C 807.29 555.33 814.30 546.17 825.35 545.50   Z"
     id="path336" />
  <path
     fill="#498e89"
     d="   M 254.18 574.31   L 252.67 569.27   Q 252.52 568.77 252.68 568.26   L 254.55 562.27   Q 254.69 561.80 254.21 561.78   L 253.50 561.74   Q 269.21 560.78 284.76 563.21   C 285.71 563.36 287.49 564.57 288.42 565.39   Q 300.87 576.40 302.58 593.66   C 303.31 601.02 302.38 611.92 295.73 616.18   Q 290.13 619.78 282.93 615.56   C 274.97 610.89 275.67 596.96 269.19 589.78   C 264.49 584.56 260.11 577.98 254.18 574.31   Z"
     id="path340" />
  <path
     fill="#b4f2f6"
     d="   M 253.50 561.74   L 254.21 561.78   Q 254.69 561.80 254.55 562.27   L 252.68 568.26   Q 252.52 568.77 252.67 569.27   L 254.18 574.31   C 242.51 571.04 227.86 580.24 220.62 588.41   Q 212.15 584.46 209.18 578.48   Q 228.27 561.14 253.50 561.74   Z"
     id="path342" />
  <path
     fill="#87d6da"
     d="   M 867.47 643.72   Q 877.39 629.55 883.58 613.68   C 885.51 609.81 887.06 603.52 885.13 599.16   C 882.11 592.34 853.67 570.26 847.18 577.18   Q 842.77 581.88 838.90 585.88   Q 831.82 590.47 829.04 597.05   C 825.41 605.62 823.17 611.66 814.85 616.62   C 810.63 619.15 805.12 613.24 803.68 609.32   Q 803.53 608.91 803.10 608.80   L 801.54 608.38   Q 799.16 589.06 810.69 572.69   C 816.37 564.62 823.89 562.99 834.31 562.12   C 845.57 561.18 861.11 562.03 872.05 566.55   C 883.12 571.13 896.38 580.04 899.49 591.96   C 902.99 605.38 896.91 621.45 887.33 630.85   Q 880.45 637.60 868.74 644.98   Q 868.31 645.25 867.99 644.86   Q 867.61 644.39 867.47 643.72   Z"
     id="path344" />
  <path
     fill="#effcfe"
     d="   M 209.18 578.48   Q 212.15 584.46 220.62 588.41   C 213.86 594.85 209.92 604.27 214.55 613.47   Q 216.23 619.48 219.85 625.42   Q 224.09 632.36 231.97 642.85   Q 232.24 643.22 232.23 643.68   Q 232.22 644.11 232.37 644.18   Q 232.53 644.53 232.51 644.85   Q 232.48 645.36 232.04 645.10   C 215.01 635.38 197.54 623.56 198.33 601.50   Q 198.56 595.13 201.58 589.10   Q 204.65 582.99 209.18 578.48   Z"
     id="path348" />
  <path
     fill="#0d0302"
     d="   M 404.75 579.49   C 410.18 579.13 411.49 582.51 411.49 587.37   C 411.51 607.72 410.89 628.36 411.57 648.68   Q 411.75 654.15 408.32 656.70   Q 404.11 655.71 404.07 651.75   Q 403.61 610.04 403.80 582.25   Q 403.81 580.87 404.75 579.49   Z"
     id="path350" />
  <path
     fill="#498e89"
     d="   M 232.37 644.18   Q 232.22 644.11 232.23 643.68   Q 232.24 643.22 231.97 642.85   Q 224.09 632.36 219.85 625.42   Q 216.23 619.48 214.55 613.47   Q 223.76 597.50 232.70 589.69   Q 237.87 585.17 243.76 582.28   A 1.46 1.46 0.0 0 1 245.51 582.63   L 261.87 601.23   A 0.63 0.62 -49.2 0 1 261.92 602.00   Q 248.54 621.78 235.08 641.15   C 234.33 642.24 233.05 642.96 232.37 644.18   Z"
     id="path352" />
  <path
     fill="#498e89"
     d="   M 883.58 613.68   Q 877.39 629.55 867.47 643.72   L 844.86 602.77   A 0.61 0.60 49.8 0 1 844.91 602.11   L 857.98 585.79   Q 858.48 585.16 859.21 585.50   C 869.15 590.14 879.26 603.13 883.58 613.68   Z"
     id="path358" />
  <path
     fill="#b4f2f6"
     d="   M 838.90 585.88   Q 834.49 590.70 831.39 595.63   C 827.51 601.79 826.13 609.63 819.88 614.78   C 815.48 618.40 811.30 620.63 806.21 616.06   Q 802.99 613.17 801.54 608.38   L 803.10 608.80   Q 803.53 608.91 803.68 609.32   C 805.12 613.24 810.63 619.15 814.85 616.62   C 823.17 611.66 825.41 605.62 829.04 597.05   Q 831.82 590.47 838.90 585.88   Z"
     id="path360" />
  <path
     fill="#498e89"
     d="   M 449.20 681.13   C 458.32 685.31 468.59 695.44 466.61 706.58   Q 466.38 707.90 465.04 707.91   L 428.71 708.19   Q 428.27 708.19 428.26 707.74   C 428.23 698.65 428.52 688.71 425.26 680.17   A 0.83 0.83 0.0 0 1 425.95 679.05   C 433.48 678.28 442.35 678.00 449.20 681.13   Z"
     id="path364" />
  <path
     fill="#498e89"
     d="   M 680.39 708.00   L 631.98 707.67   A 0.73 0.73 0.0 0 1 631.26 706.91   Q 631.62 699.48 635.73 693.25   C 646.69 676.67 665.46 674.70 681.23 685.94   A 2.22 2.21 -70.4 0 1 682.16 687.91   L 680.83 707.59   Q 680.81 708.00 680.39 708.00   Z"
     id="path366" />
  <path
     fill="#edb984"
     d="   M 419.72 708.96   A 0.25 0.25 0.0 0 1 419.47 709.21   L 392.86 709.54   A 0.98 0.20 -0.7 0 1 391.88 709.35   L 391.60 686.27   A 0.98 0.20 -0.7 0 1 392.58 686.06   L 419.19 685.73   A 0.25 0.25 0.0 0 1 419.44 685.98   L 419.72 708.96   Z   M 402.18 699.09   C 402.66 704.37 415.88 701.78 411.18 694.03   C 407.23 687.53 401.69 693.79 402.18 699.09   Z"
     id="path368" />
  <path
     fill="#ea843d"
     d="   M 689.14 709.79   L 688.93 686.01   A 0.35 0.35 0.0 0 1 689.31 685.66   L 712.58 687.26   A 0.35 0.35 0.0 0 1 712.91 687.60   L 713.38 709.33   A 0.35 0.35 0.0 0 1 713.04 709.69   L 689.49 710.13   A 0.35 0.35 0.0 0 1 689.14 709.79   Z   M 694.25 693.09   C 694.52 698.06 695.63 701.73 701.74 699.66   A 2.56 2.55 -13.0 0 0 703.46 696.91   C 702.82 691.98 698.91 690.72 694.68 692.41   Q 694.22 692.60 694.25 693.09   Z"
     id="path370" />
  <path
     fill="#230000"
     d="   M 538.32 697.20   C 528.99 697.16 530.14 684.08 537.97 686.52   Q 542.26 687.86 546.81 687.90   Q 561.53 688.06 576.24 687.99   C 582.25 687.96 582.58 695.73 578.47 697.34   Q 577.17 697.85 573.00 697.73   Q 555.65 697.26 538.32 697.20   Z"
     id="path372" />
  <path
     fill="#0d0302"
     d="   M 411.18 694.03   C 415.88 701.78 402.66 704.37 402.18 699.09   C 401.69 693.79 407.23 687.53 411.18 694.03   Z"
     id="path374" />
  <path
     fill="#0d0302"
     d="   M 701.74 699.66   C 695.63 701.73 694.52 698.06 694.25 693.09   Q 694.22 692.60 694.68 692.41   C 698.91 690.72 702.82 691.98 703.46 696.91   A 2.56 2.55 -13.0 0 1 701.74 699.66   Z"
     id="path376" />
  <path
     fill="#ea843d"
     d="   M 679.56 727.09   C 689.83 735.01 692.91 744.35 692.10 757.08   C 691.48 766.62 687.33 773.99 679.24 778.74   A 0.62 0.62 0.0 0 1 678.30 778.22   Q 677.65 752.88 678.60 727.54   A 0.60 0.60 0.0 0 1 679.56 727.09   Z"
     id="path378" />
  <path
     fill="#ea843d"
     d="   M 673.90 780.40   C 665.98 779.32 658.09 774.12 654.78 766.60   C 650.33 756.48 654.98 742.85 662.12 735.22   C 665.03 732.11 669.30 729.73 673.06 727.40   A 0.70 0.69 -15.8 0 1 674.12 727.99   L 674.35 780.00   Q 674.35 780.46 673.90 780.40   Z"
     id="path380" />
  <path
     fill="#ea843d"
     d="   M 439.16 778.77   Q 437.41 775.43 437.30 771.00   Q 436.82 750.80 437.04 730.59   Q 437.04 730.31 436.77 730.26   Q 436.59 730.23 436.50 730.21   Q 437.04 729.61 437.49 729.77   C 451.81 734.77 464.79 746.37 461.44 763.03   Q 458.05 779.89 439.16 778.77   Z"
     id="path382" />
  <path
     fill="#effcfe"
     d="   M 436.50 730.21   Q 436.59 730.23 436.77 730.26   Q 437.04 730.31 437.04 730.59   Q 436.82 750.80 437.30 771.00   Q 437.41 775.43 439.16 778.77   C 428.34 773.61 421.06 762.22 424.23 750.26   C 426.29 742.50 430.01 734.79 436.50 730.21   Z"
     id="path384" />
  <path
     fill="#effcfe"
     d="   M 438.67 796.21   C 438.73 809.19 440.34 819.93 434.80 831.98   A 0.91 0.84 61.2 0 0 434.72 832.30   L 434.54 836.45   L 412.96 836.17   Q 412.49 836.17 412.31 836.60   Q 411.11 839.44 411.84 842.42   A 0.71 0.69 83.0 0 0 412.51 842.96   L 416.69 843.01   Q 418.18 843.66 414.37 844.36   Q 413.83 844.46 413.78 845.01   C 413.42 849.38 410.55 856.73 411.35 860.30   Q 412.46 865.31 419.11 868.13   Q 413.81 867.56 409.88 863.61   C 406.19 859.92 406.23 856.80 406.18 851.23   C 406.09 839.79 412.49 822.06 426.63 822.39   A 1.84 1.84 0.0 0 0 428.51 820.60   L 429.16 793.73   Q 429.17 793.36 429.53 793.47   L 438.67 796.21   Z"
     id="path386" />
  <path
     fill="#effcfe"
     d="   M 670.18 795.93   C 669.67 804.70 670.46 814.81 668.50 823.16   L 662.77 821.77   Q 663.94 808.79 663.52 795.06   Q 663.50 794.49 664.05 794.61   L 670.18 795.93   Z"
     id="path388" />
  <path
     fill="#498e89"
     d="   M 640.45 867.49   C 651.92 866.85 661.85 861.59 659.15 848.30   Q 658.67 845.92 657.86 842.98   L 691.48 842.23   Q 692.06 842.21 692.26 841.66   C 693.27 838.91 691.66 837.13 688.88 837.00   Q 678.95 836.53 669.03 836.80   Q 667.10 829.80 668.50 823.16   C 670.46 814.81 669.67 804.70 670.18 795.93   C 674.28 795.94 678.10 796.57 681.94 794.73   Q 682.29 794.56 682.32 794.95   L 683.73 820.15   A 1.65 1.64 5.6 0 0 684.96 821.64   Q 696.53 824.60 701.59 835.92   C 706.47 846.83 704.50 867.28 688.57 867.63   Q 667.59 868.08 640.45 867.49   Z"
     id="path390" />
  <path
     fill="#87d6da"
     d="   M 473.64 825.17   Q 473.15 830.89 474.25 836.54   Q 454.32 835.43 434.54 836.45   L 434.72 832.30   A 0.91 0.84 61.2 0 1 434.80 831.98   C 440.34 819.93 438.73 809.19 438.67 796.21   L 447.48 795.31   A 0.57 0.57 0.0 0 1 448.11 795.89   Q 447.94 807.05 447.99 816.74   C 448.05 827.61 466.99 825.55 473.64 825.17   Z"
     id="path392" />
  <path
     fill="#b4f2f6"
     d="   M 668.50 823.16   Q 667.10 829.80 669.03 836.80   C 648.92 836.51 629.25 836.59 609.31 836.50   C 605.58 836.48 601.29 835.03 600.48 840.50   Q 599.53 846.95 599.89 867.34   Q 599.90 868.00 599.23 868.00   L 596.28 868.00   Q 595.67 868.00 595.69 867.39   Q 596.08 857.12 596.01 846.90   Q 595.99 843.75 597.03 841.30   C 601.79 830.17 608.11 825.28 620.33 825.27   Q 637.79 825.26 655.25 825.80   Q 657.29 825.86 662.77 821.77   L 668.50 823.16   Z"
     id="path394" />
  <path
     fill="#498e89"
     d="   M 474.25 836.54   Q 473.15 830.89 473.64 825.17   Q 484.46 824.56 495.40 825.33   C 503.98 825.93 509.79 828.31 513.77 835.67   A 0.67 0.66 76.1 0 1 513.18 836.65   L 474.25 836.54   Z"
     id="path396" />
  <path
     fill="#87d6da"
     d="   M 416.69 843.01   L 515.01 843.01   A 0.88 0.88 0.0 0 1 515.89 843.89   L 515.93 866.88   A 0.67 0.67 0.0 0 1 515.26 867.55   L 419.11 868.13   Q 412.46 865.31 411.35 860.30   C 410.55 856.73 413.42 849.38 413.78 845.01   Q 413.83 844.46 414.37 844.36   Q 418.18 843.66 416.69 843.01   Z"
     id="path398" />
  <path
     fill="#87d6da"
     d="   M 657.86 842.98   Q 658.67 845.92 659.15 848.30   C 661.85 861.59 651.92 866.85 640.45 867.49   L 608.29 868.00   Q 607.54 868.02 607.52 867.26   L 607.14 843.75   A 0.71 0.71 0.0 0 1 607.85 843.03   L 657.86 842.98   Z"
     id="path400" />
  <rect
     style="fill:#87d6da;fill-opacity:1;stroke:none;stroke-width:4.32471"
     id="rect1391"
     width="167.46693"
     height="121.89085"
     x="467.12231"
     y="541.67169"
     ry="10.618995" />
  <text
     xml:space="preserve"
     id="text1790"
     style="font-style:normal;font-weight:normal;font-size:96px;line-height:1.25;font-family:sans-serif;white-space:pre;shape-inside:url(#rect1792);display:inline;fill:#000000;fill-opacity:1;stroke:none"><tspan
       x="473.68945"
       y="736.9707"
       id="tspan2741"><tspan
         dx="0 10.06663"
         style="font-size:13.3333px;font-family:'Organo (colored version at: logomagazin.com/organo-font)';-inkscape-font-specification:'Organo (colored version at: logomagazin.com/organo-font)'"
         id="tspan2739">HL</tspan></tspan></text>
</svg>
